<?xml version="1.0" standalone="no"?>
<!DOCTYPE svg PUBLIC "-//W3C//DTD SVG 1.1//EN" "http://www.w3.org/Graphics/SVG/1.1/DTD/svg11.dtd" >
<svg xmlns="http://www.w3.org/2000/svg" xmlns:xlink="http://www.w3.org/1999/xlink" version="1.1">
<metadata>
Created by FontForge 20170731 at Fri Mar 26 15:44:11 2021
 By Aleksey,,,
Copyright 2019 The Koulen Project Authors (https://github.com/danhhong/Koulen)
</metadata>
<defs>
<font id="Koulen-Regular" horiz-adv-x="0" >
  <font-face 
    font-family="Koulen"
    font-weight="400"
    font-stretch="normal"
    units-per-em="2048"
    panose-1="0 0 0 0 0 0 0 0 0 0"
    ascent="1638"
    descent="-410"
    x-height="1425"
    cap-height="1425"
    bbox="-2449 -1126 4399 2501"
    underline-thickness="50"
    underline-position="-175"
    unicode-range="U+0020-25CC"
  />
<missing-glyph horiz-adv-x="1024" 
d="M102 -850v3039h820v-3039h-820zM204 -748h616v2835h-616v-2835z" />
    <glyph glyph-name=".notdef" horiz-adv-x="1024" 
d="M102 -850v3039h820v-3039h-820zM204 -748h616v2835h-616v-2835z" />
    <glyph glyph-name=".null" 
 />
    <glyph glyph-name="nonmarkingreturn" horiz-adv-x="682" 
 />
    <glyph glyph-name="space" unicode=" " horiz-adv-x="532" 
 />
    <glyph glyph-name="exclam" unicode="!" horiz-adv-x="415" 
d="M274 377h-140q-9 0 -10 10l-43 471v557q0 10 8 10h230q10 0 10 -10l-2 -557l-43 -471q-1 -10 -10 -10zM319 0h-230q-8 0 -8 10v223q0 9 8 9h230q8 0 8 -9v-223q0 -10 -8 -10z" />
    <glyph glyph-name="quotedbl" unicode="&#x22;" horiz-adv-x="800" 
d="M297 944h-201q-8 0 -8 10l33 463q2 8 10 8h203q10 0 8 -8l-39 -467q0 -6 -6 -6zM663 944h-200q-8 0 -8 10l32 463q2 8 11 8h202q11 0 9 -8l-39 -467q0 -6 -7 -6z" />
    <glyph glyph-name="numbersign" unicode="#" horiz-adv-x="970" 
d="M377 406h-172q-10 0 -10 10v200h-140q-12 0 -12 11v161q0 3 3 8t9 5h140v227h-140q-12 0 -12 12v166q0 11 12 11h140v200q0 8 6 8h180q4 0 4 -8v-200h188v200q0 8 9 8h180q4 0 4 -4v-204h137q10 0 10 -9v-168q0 -12 -10 -12h-137v-227h137q10 0 10 -13v-161
q0 -11 -10 -11h-137v-200q0 -10 -4 -10h-178q-11 0 -11 10v200h-188v-200q0 -10 -8 -10zM573 1028h-188v-227h188v227z" />
    <glyph glyph-name="dollar" unicode="$" horiz-adv-x="768" 
d="M462 0h-178q-8 0 -8 8v119q-103 31 -169.5 120t-66.5 202v77q0 9 8 9h187q6 0 6 -9v-77q0 -54 38 -94t89 -40q53 0 89 40t36 89q0 64 -80 109q-27 16 -84.5 47t-106.5 57q-96 54 -140 138t-44 188q0 115 66.5 200t166.5 115v119q0 8 9 8h178q10 0 10 -8v-121
q98 -30 162.5 -116t64.5 -197v-137q0 -6 -6 -6h-188q-6 0 -6 6l-2 137q0 59 -38 95t-87 36q-51 0 -87 -39t-36 -92q0 -51 22.5 -87t81.5 -71l170 -94q84 -45 132.5 -112.5t48.5 -169.5q0 -117 -63.5 -202t-164.5 -118v-121q0 -8 -10 -8z" />
    <glyph glyph-name="percent" unicode="%" horiz-adv-x="1388" 
d="M296 764q-72 0 -131 37q-61 37 -97 98.5t-36 132.5v146q0 74 36 135q36 62 96.5 97.5t131.5 35.5q74 0 134 -36q59 -36 93.5 -97.5t34.5 -134.5v-146q0 -73 -35 -134q-36 -60 -95.5 -97t-131.5 -37zM388 0h-239q-10 0 -6 10l817 1407q6 8 12 8h238q11 0 6 -8l-815 -1407
q-4 -10 -13 -10zM292 930q41 0 67.5 29.5t26.5 72.5v142q0 40 -26.5 70t-67.5 30t-68.5 -30t-27.5 -70v-142q0 -41 28.5 -71.5t67.5 -30.5zM1085 -20q-73 0 -132 37q-61 36 -97 97.5t-36 133.5v145q0 75 36 136q36 62 96.5 97.5t132.5 35.5q73 0 133 -36q59 -36 94 -97.5
t35 -135.5v-145q0 -74 -36 -134q-36 -61 -95.5 -97.5t-130.5 -36.5zM1083 145q41 0 67.5 30t26.5 73v141q0 41 -26.5 70.5t-67.5 29.5t-69 -29.5t-28 -70.5v-141q0 -41 29 -72t68 -31z" />
    <glyph glyph-name="ampersand" unicode="&#x26;" horiz-adv-x="1017" 
d="M794 0l-364 -2q-120 0 -212 60q-91 59 -142.5 149t-51.5 180v135q0 70 33 135.5t86 116.5q-43 47 -67.5 115.5t-24.5 152.5q0 106 50 194q50 87 135 138t189 51h277q14 0 14 -14v-217q0 -12 -12 -12h-279q-51 0 -89 -41t-38 -99q0 -69 32 -108t95 -39h557q11 0 11 -10
v-228q0 -8 -8 -8h-181l-2 -641q0 -8 -8 -8zM430 244l133 2l2 403h-142q-43 0 -78 -21q-77 -47 -77 -106v-135q0 -30 20 -64t56 -56.5t86 -22.5z" />
    <glyph glyph-name="quotesingle" unicode="'" horiz-adv-x="434" 
d="M297 944h-201q-8 0 -8 10l33 463q2 8 10 8h203q10 0 8 -8l-39 -467q0 -6 -6 -6z" />
    <glyph glyph-name="parenleft" unicode="(" horiz-adv-x="667" 
d="M575 -20h-111q-105 4 -194 60q-88 56 -141.5 148.5t-53.5 202.5l2 649q0 109 52 200t140.5 147.5t194.5 60.5h115q10 0 10 -8v-232q0 -8 -10 -8h-117q-59 0 -100 -47t-41 -113v-649q0 -63 42 -110.5t99 -53.5h111q10 0 10 -8l2 -231q0 -8 -10 -8z" />
    <glyph glyph-name="parenright" unicode=")" horiz-adv-x="667" 
d="M200 -20h-109q-10 0 -10 8v231q0 8 10 8h109q61 6 103 53.5t42 110.5v649q0 66 -41 113t-104 47h-113q-10 0 -10 8v232q0 8 10 8h115q107 -4 195 -60q89 -57 140.5 -148t51.5 -200l2 -649q0 -110 -53 -202q-53 -93 -141.5 -149t-196.5 -60z" />
    <glyph glyph-name="asterisk" unicode="*" horiz-adv-x="720" 
d="M626 1212l-170 -100l170 -102l-90 -119l-129 98l8 -180h-149l8 178l-129 -100l-88 119l170 104l-172 107l90 118l131 -100l-10 188h151l-12 -188l133 96z" />
    <glyph glyph-name="plus" unicode="+" horiz-adv-x="905" 
d="M532 262h-172q-10 0 -10 10v367h-291q-12 0 -12 10v162q0 2 3 7t9 5h291v373q0 4 10 4h172q9 0 9 -4v-373h305q10 0 10 -12v-162q0 -10 -10 -10h-305v-367q0 -10 -9 -10z" />
    <glyph glyph-name="comma" unicode="," horiz-adv-x="415" 
d="M81 -258v127q51 0 87 39t36 92h-115q-8 0 -8 8v230q0 8 8 8h232q8 0 8 -8v-238q0 -72 -35 -131t-91 -93t-122 -34z" />
    <glyph glyph-name="hyphen" unicode="-" horiz-adv-x="620" 
d="M494 592h-396q-10 0 -10 8v223q0 8 10 8h396q10 0 10 -8v-223q0 -8 -10 -8z" />
    <glyph glyph-name="period" unicode="." horiz-adv-x="415" 
d="M321 0h-232q-8 0 -8 8v232q0 8 8 8h232q8 0 8 -8v-232q0 -8 -8 -8z" />
    <glyph glyph-name="slash" unicode="/" horiz-adv-x="612" 
d="M280 0h-209q-9 0 -8 10l254 1407q2 8 10 8h213q10 0 8 -8l-258 -1407q-1 -10 -10 -10z" />
    <glyph glyph-name="zero" unicode="0" horiz-adv-x="1017" 
d="M501 -20q-130 0 -231 56q-100 56 -156.5 149.5t-56.5 205.5l2 649q0 114 57 205q56 92 156 147.5t229 55.5q132 0 230 -55t154.5 -147.5t56.5 -205.5l2 -649q0 -111 -56 -205q-57 -94 -156.5 -150t-230.5 -56zM696 391l-2 649q0 72 -53.5 117t-139.5 45q-88 0 -141 -45
t-53 -117v-649q0 -76 53 -120t141 -44q86 0 140.5 44t54.5 120z" />
    <glyph glyph-name="one" unicode="1" horiz-adv-x="430" 
d="M323 0h-232q-10 0 -10 10l2 1407q0 8 8 8h230q8 0 8 -8l2 -1407q0 -10 -8 -10z" />
    <glyph glyph-name="two" unicode="2" horiz-adv-x="899" 
d="M816 0h-764q-10 0 -10 10v232q0 4 4 8l506 694q14 19 23.5 48.5t9.5 51.5q0 60 -43 110t-109 50q-63 0 -107 -48t-44 -122v-100q0 -10 -10 -10h-230q-8 0 -8 10v100q0 115 57 209q56 94 147 149.5t195 55.5q110 0 201 -56q90 -57 144.5 -149t54.5 -199
q0 -67 -23.5 -136.5t-64.5 -123.5l-389 -534h460q9 0 9 -8v-232q0 -10 -9 -10z" />
    <glyph glyph-name="three" unicode="3" horiz-adv-x="901" 
d="M433 -23q-107 0 -199 57q-91 56 -145.5 150.5t-54.5 206.5v92q0 11 8 11h230q10 0 10 -11v-92q0 -67 43 -115.5t108 -48.5q72 0 113 50.5t41 113.5v55q0 64 -40 115t-101 51h-80q-10 0 -10 11l2 229q0 8 8 8h80q55 0 98 43t43 113v28q0 66 -44 112t-110 46
q-63 0 -107 -46t-44 -112v-98q0 -10 -8 -10h-230q-8 0 -8 10v109q0 112 57 200q56 88 147 140.5t193 52.5q111 0 202 -54q91 -55 144.5 -145t53.5 -198v-33q0 -90 -30 -155.5t-83 -125.5q53 -61 84 -134t31 -150v-62q0 -114 -54 -209q-55 -94 -146 -149.5t-202 -55.5z" />
    <glyph glyph-name="four" unicode="4" horiz-adv-x="923" 
d="M718 0h-231q-8 0 -8 10v240h-443q-8 0 -8 10v225l446 932q5 8 13 8h231q6 0 6 -8l2 -923h144q10 0 10 -11v-223q0 -10 -8 -10h-146v-240q0 -10 -8 -10zM270 494h209v446z" />
    <glyph glyph-name="five" unicode="5" horiz-adv-x="886" 
d="M448 -20q-109 0 -200 55q-92 55 -147.5 146t-55.5 198v61q0 9 10 9h232q8 0 8 -9v-47q0 -69 45 -116.5t108 -47.5q64 0 108 48.5t44 115.5v139q0 64 -46 107t-114 43q-88 0 -145 -70l-4 -6l-219 17q-11 0 -11 10l25 561l12 223q0 8 8 8h689q8 0 8 -8v-223q0 -10 -8 -10
h-480l-10 -283q25 12 65 20.5t72 8.5q111 0 204 -54q93 -55 148.5 -145t55.5 -199v-139q0 -111 -54 -206q-55 -94 -146 -150.5t-202 -56.5z" />
    <glyph glyph-name="six" unicode="6" horiz-adv-x="931" 
d="M460 -20q-107 0 -199 56q-91 56 -146.5 148t-55.5 203l-2 647q0 112 56 207q56 94 147.5 150.5t199.5 56.5q110 0 202 -56q91 -57 145.5 -150t54.5 -208v-41q0 -8 -10 -8h-230q-8 0 -8 8v41q0 68 -44 116t-110 48q-63 0 -108 -48t-45 -116v-141q72 31 153 31
q111 0 202 -55t144.5 -148.5t53.5 -206.5v-127q0 -111 -54 -204q-55 -93 -145 -148t-201 -55zM460 225q64 0 108 47t44 115v127q0 66 -44 114t-108 48q-63 0 -108 -47t-45 -115v-127q0 -65 45 -113.5t108 -48.5z" />
    <glyph glyph-name="seven" unicode="7" horiz-adv-x="905" 
d="M441 0h-253q-9 0 -5 10l422 1174h-559q-8 0 -8 8v223q0 10 8 10h793q8 0 8 -10v-229l-393 -1176q-4 -10 -13 -10z" />
    <glyph glyph-name="eight" unicode="8" horiz-adv-x="919" 
d="M446 -20q-107 0 -199 56q-91 56 -146.5 148t-55.5 203v127q0 86 33 161t88 132q-45 49 -70.5 115.5t-25.5 142.5q0 105 50 194q50 87 136 138t190 51q105 0 190 -52t136 -138.5t51 -192.5q0 -76 -25.5 -141.5t-70.5 -116.5q55 -55 87 -131t32 -162v-127q0 -111 -54 -204
q-55 -93 -145 -148t-201 -55zM446 928q54 0 91.5 40t37.5 97t-37.5 98t-91.5 41q-53 0 -92 -41t-39 -98q0 -55 39 -96t92 -41zM446 225q64 0 108 47t44 115v127q0 66 -44 114t-108 48q-63 0 -108 -47t-45 -115v-127q0 -65 45 -113.5t108 -48.5z" />
    <glyph glyph-name="nine" unicode="9" horiz-adv-x="919" 
d="M441 -20q-108 0 -200 56t-146.5 150.5t-54.5 206.5v41q0 8 10 8h230q8 0 8 -8v-41q0 -67 45 -115.5t108 -48.5q64 0 109 48.5t45 115.5v142q-72 -31 -154 -31q-111 0 -200 55q-90 55 -144.5 148.5t-54.5 205.5v127q0 114 55 205q54 92 145 147.5t199 55.5q109 0 200 -55
t146.5 -148.5t55.5 -204.5v-127l2 -520q0 -112 -55 -206t-146.5 -150.5t-202.5 -56.5zM441 752q66 0 110 47t44 114v127q0 66 -45 114t-109 48q-63 0 -107 -47t-44 -115v-127q0 -65 44 -113t107 -48z" />
    <glyph glyph-name="colon" unicode=":" horiz-adv-x="415" 
d="M321 608h-232q-8 0 -8 8v232q0 8 8 8h232q8 0 8 -8v-232q0 -8 -8 -8zM321 0h-232q-8 0 -8 8v232q0 8 8 8h232q8 0 8 -8v-232q0 -8 -8 -8z" />
    <glyph glyph-name="semicolon" unicode=";" horiz-adv-x="415" 
d="M321 608h-232q-8 0 -8 8v232q0 8 8 8h232q8 0 8 -8v-232q0 -8 -8 -8zM81 -258v127q51 0 87 39t36 92h-115q-8 0 -8 8v230q0 8 8 8h232q8 0 8 -8v-238q0 -72 -35 -131t-91 -93t-122 -34z" />
    <glyph glyph-name="less" unicode="&#x3c;" horiz-adv-x="872" 
d="M629 246l-568 452q-16 16 -16 38q0 20 16 32l553 440q6 6 15 -2l100 -125q6 -12 2 -16l-410 -332l424 -344q7 -6 0 -16l-102 -125q-8 -8 -14 -2z" />
    <glyph glyph-name="equal" unicode="=" horiz-adv-x="907" 
d="M846 811h-787q-12 0 -12 10v162q0 12 12 12h787q10 0 10 -12v-162q0 -10 -10 -10zM848 463h-787q-12 0 -12 10v162q0 12 12 12h787q10 0 10 -12v-162q0 -10 -10 -10z" />
    <glyph glyph-name="greater" unicode="&#x3e;" horiz-adv-x="872" 
d="M765 698l-567 -452q-6 -6 -14 2l-103 125q-6 10 0 16l424 344l-410 332q-4 4 3 16l100 125q8 8 14 2l553 -440q17 -12 17 -32q0 -21 -17 -38z" />
    <glyph glyph-name="question" unicode="?" horiz-adv-x="890" 
d="M542 377h-227q-11 0 -11 8v111q0 82 38 164.5t104 148.5q31 31 53.5 54.5t36.5 40.5q29 34 37 62.5t8 67.5q0 72 -43 120t-109 48q-65 0 -109 -48t-44 -120v-149q0 -8 -8 -8h-232q-8 0 -8 8v149q0 115 55 209q54 94 145 149.5t201 55.5q111 0 202 -55t144.5 -149.5
t53.5 -209.5q0 -65 -14 -119q-15 -52 -54 -108.5t-115 -140.5q-51 -52 -72.5 -93t-21.5 -90v-98q0 -8 -10 -8zM542 0h-227q-11 0 -11 10v228q0 8 11 8h227q10 0 10 -8v-228q0 -10 -10 -10z" />
    <glyph glyph-name="at" unicode="@" horiz-adv-x="1107" 
d="M460 -20q-109 0 -201 56q-91 56 -146.5 149.5t-55.5 205.5l2 649q0 113 55 204q54 91 145 147.5t199 56.5h131q117 0 208 -57q91 -58 143.5 -152t50.5 -205l-2 -297q0 -109 -31 -196q-31 -88 -98.5 -139.5t-181.5 -51.5q-138 0 -208.5 109.5t-70.5 277.5v269q0 6 8 6h221
q7 0 7 -6v-275q0 -86 11 -125q10 -37 40 -37q35 0 44 34q9 35 9 128l2 309q0 68 -43 115t-109 47h-131q-63 -2 -107 -48t-44 -114v-649q0 -67 45 -101t108 -34q119 0 271.5 3t292.5 15q10 0 10 -10v-254q0 -9 -10 -10q-25 -2 -92 -5.5t-133 -6.5q-83 -4 -172 -6t-167 -2z
" />
    <glyph glyph-name="A" unicode="A" horiz-adv-x="874" 
d="M12 10l254 1407q2 8 10 8h297q8 0 10 -8l244 -1407q1 -10 -8 -10h-227q-10 0 -11 10l-22 150h-279l-22 -150q-1 -10 -10 -10h-228q-8 0 -8 10zM413 954l-92 -575h197l-84 575l-12 76z" />
    <glyph glyph-name="B" unicode="B" horiz-adv-x="950" 
d="M456 0h-367q-8 0 -8 10l4 1407q0 8 8 8h394q115 0 209 -56q92 -56 145 -148.5t53 -200.5q0 -88 -40 -164t-95 -123q59 -59 92 -137t33 -164q0 -119 -57 -217q-58 -98 -155 -156.5t-216 -58.5zM487 1182h-156v-322h156q71 0 115 50.5t44 109.5q0 65 -47 113.5t-112 48.5z
M456 612h-125l-2 -362h127q74 0 127 54t53 128t-53 127t-127 53z" />
    <glyph glyph-name="C" unicode="C" horiz-adv-x="927" 
d="M458 -20q-111 0 -203 56q-91 56 -144.5 150.5t-53.5 210.5l2 639q0 114 52 206q52 93 143.5 149.5t203.5 56.5q114 0 203 -55q90 -55 143.5 -148.5t53.5 -208.5v-94q0 -8 -8 -8h-230q-8 0 -8 8v94q0 68 -44 117t-110 49q-73 0 -112 -50t-39 -116v-639q0 -75 44 -122.5
t107 -47.5q66 0 110 52.5t44 117.5v95q0 8 8 8h232q8 0 8 -8v-95q0 -115 -54 -210q-55 -94 -145 -150.5t-203 -56.5z" />
    <glyph glyph-name="D" unicode="D" horiz-adv-x="966" 
d="M458 2l-367 -2q-10 0 -10 10l4 1407q0 8 8 8l383 2q114 3 206 -52q93 -55 148.5 -148.5t55.5 -206.5v-588q0 -118 -57 -216q-58 -97 -154 -154.5t-217 -59.5zM476 1182l-143 -2l-2 -928h127q76 0 128 53t52 127v590q0 65 -48 113.5t-114 46.5z" />
    <glyph glyph-name="E" unicode="E" horiz-adv-x="860" 
d="M751 0h-662q-8 0 -8 10l2 1407q0 8 8 8h658q8 0 8 -10v-229q0 -8 -8 -8h-420v-320h420q8 0 8 -8l2 -232q0 -8 -8 -8h-422v-358h422q8 0 8 -10v-234q0 -8 -8 -8z" />
    <glyph glyph-name="F" unicode="F" horiz-adv-x="862" 
d="M321 0h-230q-10 0 -10 10l4 1407q0 8 8 8h656q10 0 10 -8v-231q0 -8 -8 -8h-420v-318h420q8 0 8 -10l2 -232q0 -8 -10 -8h-420v-600q0 -10 -10 -10z" />
    <glyph glyph-name="G" unicode="G" horiz-adv-x="921" 
d="M456 -20q-111 0 -200 55q-90 55 -144.5 148t-54.5 208v649q0 112 55 204q54 93 145 148.5t199 55.5q113 0 204 -54q91 -55 144.5 -147t53.5 -207v-94q0 -8 -10 -8h-230q-8 0 -8 8v78q0 78 -44 129t-110 51q-59 0 -105 -49t-46 -115v-649q0 -67 45 -115.5t106 -48.5
q66 0 110 47.5t44 116.5v101h-143q-11 0 -11 10v229q0 10 11 10h383q8 0 8 -10v-340q0 -115 -54 -208q-55 -93 -145 -148t-203 -55z" />
    <glyph glyph-name="H" unicode="H" horiz-adv-x="972" 
d="M321 0h-232q-8 0 -8 10l2 1407q0 8 10 8h228q10 0 10 -8l-2 -557h307v557q0 8 8 8h228q10 0 10 -8l4 -1407q0 -10 -10 -10h-230q-10 0 -10 10v602h-307v-602q0 -10 -8 -10z" />
    <glyph glyph-name="I" unicode="I" horiz-adv-x="430" 
d="M323 0h-232q-10 0 -10 10l2 1407q0 8 8 8h230q8 0 8 -8l2 -1407q0 -10 -8 -10z" />
    <glyph glyph-name="J" unicode="J" horiz-adv-x="890" 
d="M417 -20q-113 0 -205 54q-91 54 -143.5 149.5t-52.5 213.5v95q0 8 8 8h232q8 0 8 -11v-92q0 -75 43 -122.5t110 -47.5q62 0 107 51.5t45 118.5v1018q0 8 8 8h230q8 0 8 -10l2 -1016q0 -112 -54 -207q-55 -96 -145 -153t-201 -57z" />
    <glyph glyph-name="K" unicode="K" horiz-adv-x="960" 
d="M321 0h-232q-8 0 -8 10l4 1405q0 10 8 10h230q8 0 8 -10v-485l321 487q8 8 15 8h235q9 0 4 -8l-354 -565l397 -844q5 -8 -10 -8h-250q-10 0 -12 8l-277 602l-71 -112v-488q0 -10 -8 -10z" />
    <glyph glyph-name="L" unicode="L" horiz-adv-x="813" 
d="M751 0h-662q-8 0 -8 10l2 1405q0 10 10 10h228q10 0 10 -10l-2 -1163h422q10 0 10 -10v-232q0 -10 -10 -10z" />
    <glyph glyph-name="M" unicode="M" horiz-adv-x="1099" 
d="M321 0h-232q-8 0 -8 10l4 1407q0 8 8 8h250q8 0 14 -8l187 -270l186 270q6 8 15 8h251q9 0 9 -8l4 -1407q0 -10 -8 -10h-232q-8 0 -8 10l-2 1045l-215 -312l-213 312l-2 -1045q0 -10 -8 -10z" />
    <glyph glyph-name="N" unicode="N" horiz-adv-x="950" 
d="M304 0h-205q-16 0 -16 14l-2 1395q0 16 16 16h185l346 -807l-10 791q0 16 18 16h203q12 0 12 -16l2 -1397q0 -12 -10 -12h-180l-355 754l15 -738q0 -16 -19 -16z" />
    <glyph glyph-name="O" unicode="O" horiz-adv-x="935" 
d="M460 -20q-109 0 -201 56q-91 56 -146.5 149.5t-55.5 205.5l2 649q0 114 55 205q54 92 146 147.5t200 55.5q112 0 201 -55q90 -55 144.5 -147.5t54.5 -205.5l2 -649q0 -112 -54 -205q-55 -94 -146 -150t-202 -56zM460 227q62 0 108 50.5t46 113.5l-2 649q0 68 -43 115
t-109 47q-63 0 -108 -46t-45 -116v-649q0 -67 45 -115.5t108 -48.5z" />
    <glyph glyph-name="P" unicode="P" horiz-adv-x="935" 
d="M321 0h-230q-10 0 -10 10l4 1407q0 8 8 8h394q188 0 297.5 -114.5t109.5 -311.5q0 -144 -57 -251q-58 -106 -150 -164t-200 -58h-156v-516q0 -10 -10 -10zM487 1182l-156 -2v-406h156q65 0 113 62.5t48 162.5q0 80 -43 131.5t-118 51.5z" />
    <glyph glyph-name="Q" unicode="Q" horiz-adv-x="954" 
d="M755 -131l-141 143q-75 -32 -154 -32q-109 0 -200 55q-92 55 -147.5 149.5t-55.5 206.5l2 649q0 109 54 202q53 93 144 149.5t203 56.5q109 0 200 -54q91 -55 145.5 -147t54.5 -207l2 -649q0 -59 -16.5 -114.5t-43.5 -102.5l127 -129q10 -8 2 -14l-161 -162q-7 -6 -15 0z
M460 227q70 0 112 52.5t42 111.5l-2 649q0 66 -43 114t-109 48q-69 0 -111 -49t-42 -113v-649q0 -74 48 -119t105 -45z" />
    <glyph glyph-name="R" unicode="R" horiz-adv-x="987" 
d="M321 0h-232q-8 0 -8 10l4 1407q0 8 8 8h414q111 0 204 -54t148.5 -145t55.5 -206q0 -75 -23 -136t-53.5 -103t-55.5 -62q111 -123 111 -289l2 -420q0 -10 -10 -10h-232q-8 0 -8 6v424q0 74 -52 128t-128 54h-135l-2 -602q0 -10 -8 -10zM507 1180h-176v-322h176
q63 0 112.5 47t49.5 115q0 65 -48 112.5t-114 47.5z" />
    <glyph glyph-name="S" unicode="S" horiz-adv-x="892" 
d="M429 -20q-109 0 -201 56q-91 56 -145.5 149.5t-54.5 205.5v94q0 11 10 11h230q8 0 8 -11v-94q0 -67 45 -115.5t108 -48.5q64 0 109 49.5t45 114.5q0 75 -98 131q-16 10 -41.5 24.5t-60.5 33.5t-68 37.5t-64 35.5q-112 66 -166.5 165.5t-54.5 223.5q0 114 56 206
q56 91 146.5 144.5t196.5 53.5q109 0 200 -54q91 -55 145.5 -146t54.5 -204v-168q0 -8 -8 -8h-230q-8 0 -8 8l-2 168q0 72 -45 117t-107 45q-63 0 -108 -48t-45 -114q0 -67 28.5 -112t104.5 -86q8 -4 37 -20t64.5 -35.5t64.5 -35t35 -18.5q102 -57 161.5 -140t59.5 -204
q0 -117 -54 -210q-55 -93 -146 -147t-202 -54z" />
    <glyph glyph-name="T" unicode="T" horiz-adv-x="819" 
d="M518 0h-231q-9 0 -9 10v1168h-266q-10 0 -10 10l2 229q0 8 8 8h778q11 0 11 -8v-229q0 -10 -8 -10h-269l2 -1168q0 -10 -8 -10z" />
    <glyph glyph-name="U" unicode="U" horiz-adv-x="942" 
d="M458 -20q-108 0 -200 56t-146.5 150.5t-54.5 206.5l4 1024q0 8 8 8h230q8 0 8 -8v-1024q0 -69 44 -117.5t107 -48.5q66 0 110 48.5t44 117.5v1024q0 8 8 8h230q8 0 8 -8l4 -1024q0 -113 -54 -208q-55 -94 -146 -149.5t-204 -55.5z" />
    <glyph glyph-name="V" unicode="V" horiz-adv-x="886" 
d="M559 0h-248q-9 0 -10 10l-283 1407q-2 8 8 8h232q8 0 10 -8l168 -938l164 938q2 8 10 8h229q11 0 8 -8l-278 -1407q-1 -10 -10 -10z" />
    <glyph glyph-name="W" unicode="W" horiz-adv-x="1288" 
d="M518 0h-248q-9 0 -10 10l-242 1407q-2 8 6 8h230q8 0 10 -8l131 -925l135 925q2 8 12 8h185q8 0 10 -8l133 -925l133 925q2 8 10 8h228q10 0 8 -8l-244 -1407q-1 -4 -6 -7l-4 -3h-248q-6 0 -10 10l-105 735l-104 -735q-1 -10 -10 -10z" />
    <glyph glyph-name="X" unicode="X" horiz-adv-x="827" 
d="M248 0h-230q-7 0 -6 10l234 731l-230 676q-2 8 6 8h230q10 0 12 -8l137 -487l139 487q2 8 13 8h227q8 0 6 -8l-229 -674l231 -733q4 -10 -6 -10h-229q-9 0 -13 10l-139 529l-141 -529q-1 -10 -12 -10z" />
    <glyph glyph-name="Y" unicode="Y" horiz-adv-x="821" 
d="M508 0h-235q-7 0 -7 8l2 582l-274 827q-2 8 6 8h228q10 0 12 -8l151 -551l154 551q2 8 10 8h230q8 0 6 -8l-277 -819l2 -590q0 -8 -8 -8z" />
    <glyph glyph-name="Z" unicode="Z" horiz-adv-x="847" 
d="M790 0h-764q-10 0 -10 10l2 223l502 959h-475q-9 0 -9 8v215q0 10 9 10h741q10 0 10 -10v-221l-499 -954h493q8 0 8 -11l2 -219q0 -10 -10 -10z" />
    <glyph glyph-name="bracketleft" unicode="[" horiz-adv-x="684" 
d="M595 0h-512q-8 0 -8 8v1409q0 8 8 8h512q10 0 10 -8v-223q0 -8 -10 -8h-282v-946h282q10 0 10 -9v-223q0 -8 -10 -8z" />
    <glyph glyph-name="backslash" unicode="\" horiz-adv-x="616" 
d="M544 0h-215q-9 0 -10 10l-256 1407q-2 8 8 8h213q8 0 10 -8l259 -1407q1 -10 -9 -10z" />
    <glyph glyph-name="bracketright" unicode="]" horiz-adv-x="684" 
d="M599 0h-512q-10 0 -10 8v223q0 9 10 9h283v946h-283q-10 0 -10 8v223q0 8 10 8h512q8 0 8 -8v-1409q0 -8 -8 -8z" />
    <glyph glyph-name="asciicircum" unicode="^" horiz-adv-x="753" 
d="M687 967l-149 -111l-176 285l-174 -285l-150 109l279 436q16 16 48 16q31 0 44 -16z" />
    <glyph glyph-name="underscore" unicode="_" horiz-adv-x="1120" 
d="M1025 -215h-936q-8 0 -8 8v209q0 8 8 8h936q8 0 8 -8v-209q0 -8 -8 -8z" />
    <glyph glyph-name="grave" unicode="`" horiz-adv-x="583" 
d="M489 1534h-205q-7 0 -12 8l-191 354q-4 9 8 9h234q9 0 10 -9l164 -354q2 -8 -8 -8z" />
    <glyph glyph-name="a" unicode="a" horiz-adv-x="874" 
d="M12 10l254 1407q2 8 10 8h297q8 0 10 -8l244 -1407q1 -10 -8 -10h-227q-10 0 -11 10l-22 150h-279l-22 -150q-1 -10 -10 -10h-228q-8 0 -8 10zM413 954l-92 -575h197l-84 575l-12 76z" />
    <glyph glyph-name="b" unicode="b" horiz-adv-x="950" 
d="M456 0h-367q-8 0 -8 10l4 1407q0 8 8 8h394q115 0 209 -56q92 -56 145 -148.5t53 -200.5q0 -88 -40 -164t-95 -123q59 -59 92 -137t33 -164q0 -119 -57 -217q-58 -98 -155 -156.5t-216 -58.5zM487 1182h-156v-322h156q71 0 115 50.5t44 109.5q0 65 -47 113.5t-112 48.5z
M456 612h-125l-2 -362h127q74 0 127 54t53 128t-53 127t-127 53z" />
    <glyph glyph-name="c" unicode="c" horiz-adv-x="927" 
d="M458 -20q-111 0 -203 56q-91 56 -144.5 150.5t-53.5 210.5l2 639q0 114 52 206q52 93 143.5 149.5t203.5 56.5q114 0 203 -55q90 -55 143.5 -148.5t53.5 -208.5v-94q0 -8 -8 -8h-230q-8 0 -8 8v94q0 68 -44 117t-110 49q-73 0 -112 -50t-39 -116v-639q0 -75 44 -122.5
t107 -47.5q66 0 110 52.5t44 117.5v95q0 8 8 8h232q8 0 8 -8v-95q0 -115 -54 -210q-55 -94 -145 -150.5t-203 -56.5z" />
    <glyph glyph-name="d" unicode="d" horiz-adv-x="966" 
d="M458 2l-367 -2q-10 0 -10 10l4 1407q0 8 8 8l383 2q114 3 206 -52q93 -55 148.5 -148.5t55.5 -206.5v-588q0 -118 -57 -216q-58 -97 -154 -154.5t-217 -59.5zM476 1182l-143 -2l-2 -928h127q76 0 128 53t52 127v590q0 65 -48 113.5t-114 46.5z" />
    <glyph glyph-name="e" unicode="e" horiz-adv-x="860" 
d="M751 0h-662q-8 0 -8 10l2 1407q0 8 8 8h658q8 0 8 -10v-229q0 -8 -8 -8h-420v-320h420q8 0 8 -8l2 -232q0 -8 -8 -8h-422v-358h422q8 0 8 -10v-234q0 -8 -8 -8z" />
    <glyph glyph-name="f" unicode="f" horiz-adv-x="862" 
d="M321 0h-230q-10 0 -10 10l4 1407q0 8 8 8h656q10 0 10 -8v-231q0 -8 -8 -8h-420v-318h420q8 0 8 -10l2 -232q0 -8 -10 -8h-420v-600q0 -10 -10 -10z" />
    <glyph glyph-name="g" unicode="g" horiz-adv-x="921" 
d="M456 -20q-111 0 -200 55q-90 55 -144.5 148t-54.5 208v649q0 112 55 204q54 93 145 148.5t199 55.5q113 0 204 -54q91 -55 144.5 -147t53.5 -207v-94q0 -8 -10 -8h-230q-8 0 -8 8v78q0 78 -44 129t-110 51q-59 0 -105 -49t-46 -115v-649q0 -67 45 -115.5t106 -48.5
q66 0 110 47.5t44 116.5v101h-143q-11 0 -11 10v229q0 10 11 10h383q8 0 8 -10v-340q0 -115 -54 -208q-55 -93 -145 -148t-203 -55z" />
    <glyph glyph-name="h" unicode="h" horiz-adv-x="972" 
d="M321 0h-232q-8 0 -8 10l2 1407q0 8 10 8h228q10 0 10 -8l-2 -557h307v557q0 8 8 8h228q10 0 10 -8l4 -1407q0 -10 -10 -10h-230q-10 0 -10 10v602h-307v-602q0 -10 -8 -10z" />
    <glyph glyph-name="i" unicode="i" horiz-adv-x="430" 
d="M323 0h-232q-10 0 -10 10l2 1407q0 8 8 8h230q8 0 8 -8l2 -1407q0 -10 -8 -10z" />
    <glyph glyph-name="j" unicode="j" horiz-adv-x="890" 
d="M417 -20q-113 0 -205 54q-91 54 -143.5 149.5t-52.5 213.5v95q0 8 8 8h232q8 0 8 -11v-92q0 -75 43 -122.5t110 -47.5q62 0 107 51.5t45 118.5v1018q0 8 8 8h230q8 0 8 -10l2 -1016q0 -112 -54 -207q-55 -96 -145 -153t-201 -57z" />
    <glyph glyph-name="k" unicode="k" horiz-adv-x="960" 
d="M321 0h-232q-8 0 -8 10l4 1405q0 10 8 10h230q8 0 8 -10v-485l321 487q8 8 15 8h235q9 0 4 -8l-354 -565l397 -844q5 -8 -10 -8h-250q-10 0 -12 8l-277 602l-71 -112v-488q0 -10 -8 -10z" />
    <glyph glyph-name="l" unicode="l" horiz-adv-x="813" 
d="M751 0h-662q-8 0 -8 10l2 1405q0 10 10 10h228q10 0 10 -10l-2 -1163h422q10 0 10 -10v-232q0 -10 -10 -10z" />
    <glyph glyph-name="m" unicode="m" horiz-adv-x="1099" 
d="M321 0h-232q-8 0 -8 10l4 1407q0 8 8 8h250q8 0 14 -8l187 -270l186 270q6 8 15 8h251q9 0 9 -8l4 -1407q0 -10 -8 -10h-232q-8 0 -8 10l-2 1045l-215 -312l-213 312l-2 -1045q0 -10 -8 -10z" />
    <glyph glyph-name="n" unicode="n" horiz-adv-x="950" 
d="M304 0h-205q-16 0 -16 14l-2 1395q0 16 16 16h185l346 -807l-10 791q0 16 18 16h203q12 0 12 -16l2 -1397q0 -12 -10 -12h-180l-355 754l15 -738q0 -16 -19 -16z" />
    <glyph glyph-name="o" unicode="o" horiz-adv-x="935" 
d="M460 -20q-109 0 -201 56q-91 56 -146.5 149.5t-55.5 205.5l2 649q0 114 55 205q54 92 146 147.5t200 55.5q112 0 201 -55q90 -55 144.5 -147.5t54.5 -205.5l2 -649q0 -112 -54 -205q-55 -94 -146 -150t-202 -56zM460 227q62 0 108 50.5t46 113.5l-2 649q0 68 -43 115
t-109 47q-63 0 -108 -46t-45 -116v-649q0 -67 45 -115.5t108 -48.5z" />
    <glyph glyph-name="p" unicode="p" horiz-adv-x="952" 
d="M321 0h-230q-10 0 -10 10l4 1407q0 8 8 8h394q188 0 297.5 -114.5t109.5 -311.5q0 -144 -57 -251q-58 -106 -150 -164t-200 -58h-156v-516q0 -10 -10 -10zM487 1182l-156 -2v-406h156q65 0 113 62.5t48 162.5q0 80 -43 131.5t-118 51.5z" />
    <glyph glyph-name="q" unicode="q" horiz-adv-x="954" 
d="M755 -131l-141 143q-75 -32 -154 -32q-109 0 -200 55q-92 55 -147.5 149.5t-55.5 206.5l2 649q0 109 54 202q53 93 144 149.5t203 56.5q109 0 200 -54q91 -55 145.5 -147t54.5 -207l2 -649q0 -59 -16.5 -114.5t-43.5 -102.5l127 -129q10 -8 2 -14l-161 -162q-7 -6 -15 0z
M460 227q70 0 112 52.5t42 111.5l-2 649q0 66 -43 114t-109 48q-69 0 -111 -49t-42 -113v-649q0 -74 48 -119t105 -45z" />
    <glyph glyph-name="r" unicode="r" horiz-adv-x="987" 
d="M321 0h-232q-8 0 -8 10l4 1407q0 8 8 8h414q111 0 204 -54t148.5 -145t55.5 -206q0 -75 -23 -136t-53.5 -103t-55.5 -62q111 -123 111 -289l2 -420q0 -10 -10 -10h-232q-8 0 -8 6v424q0 74 -52 128t-128 54h-135l-2 -602q0 -10 -8 -10zM507 1180h-176v-322h176
q63 0 112.5 47t49.5 115q0 65 -48 112.5t-114 47.5z" />
    <glyph glyph-name="s" unicode="s" horiz-adv-x="892" 
d="M429 -20q-109 0 -201 56q-91 56 -145.5 149.5t-54.5 205.5v94q0 11 10 11h230q8 0 8 -11v-94q0 -67 45 -115.5t108 -48.5q64 0 109 49.5t45 114.5q0 75 -98 131q-16 10 -41.5 24.5t-60.5 33.5t-68 37.5t-64 35.5q-112 66 -166.5 165.5t-54.5 223.5q0 114 56 206
q56 91 146.5 144.5t196.5 53.5q109 0 200 -54q91 -55 145.5 -146t54.5 -204v-168q0 -8 -8 -8h-230q-8 0 -8 8l-2 168q0 72 -45 117t-107 45q-63 0 -108 -48t-45 -114q0 -67 28.5 -112t104.5 -86q8 -4 37 -20t64.5 -35.5t64.5 -35t35 -18.5q102 -57 161.5 -140t59.5 -204
q0 -117 -54 -210q-55 -93 -146 -147t-202 -54z" />
    <glyph glyph-name="t" unicode="t" horiz-adv-x="819" 
d="M518 0h-231q-9 0 -9 10v1168h-266q-10 0 -10 10l2 229q0 8 8 8h778q11 0 11 -8v-229q0 -10 -8 -10h-269l2 -1168q0 -10 -8 -10z" />
    <glyph glyph-name="u" unicode="u" horiz-adv-x="942" 
d="M458 -20q-108 0 -200 56t-146.5 150.5t-54.5 206.5l4 1024q0 8 8 8h230q8 0 8 -8v-1024q0 -69 44 -117.5t107 -48.5q66 0 110 48.5t44 117.5v1024q0 8 8 8h230q8 0 8 -8l4 -1024q0 -113 -54 -208q-55 -94 -146 -149.5t-204 -55.5z" />
    <glyph glyph-name="v" unicode="v" horiz-adv-x="886" 
d="M559 0h-248q-9 0 -10 10l-283 1407q-2 8 8 8h232q8 0 10 -8l168 -938l164 938q2 8 10 8h229q11 0 8 -8l-278 -1407q-1 -10 -10 -10z" />
    <glyph glyph-name="w" unicode="w" horiz-adv-x="1288" 
d="M518 0h-248q-9 0 -10 10l-242 1407q-2 8 6 8h230q8 0 10 -8l131 -925l135 925q2 8 12 8h185q8 0 10 -8l133 -925l133 925q2 8 10 8h228q10 0 8 -8l-244 -1407q-1 -4 -6 -7l-4 -3h-248q-6 0 -10 10l-105 735l-104 -735q-1 -10 -10 -10z" />
    <glyph glyph-name="x" unicode="x" horiz-adv-x="827" 
d="M248 0h-230q-7 0 -6 10l234 731l-230 676q-2 8 6 8h230q10 0 12 -8l137 -487l139 487q2 8 13 8h227q8 0 6 -8l-229 -674l231 -733q4 -10 -6 -10h-229q-9 0 -13 10l-139 529l-141 -529q-1 -10 -12 -10z" />
    <glyph glyph-name="y" unicode="y" horiz-adv-x="821" 
d="M508 0h-235q-7 0 -7 8l2 582l-274 827q-2 8 6 8h228q10 0 12 -8l151 -551l154 551q2 8 10 8h230q8 0 6 -8l-277 -819l2 -590q0 -8 -8 -8z" />
    <glyph glyph-name="z" unicode="z" horiz-adv-x="847" 
d="M790 0h-764q-10 0 -10 10l2 223l502 959h-475q-9 0 -9 8v215q0 10 9 10h741q10 0 10 -10v-221l-499 -954h493q8 0 8 -11l2 -219q0 -10 -10 -10z" />
    <glyph glyph-name="braceleft" unicode="{" horiz-adv-x="831" 
d="M743 0h-512q-8 0 -8 8v600h-199q-10 0 -10 8v224q0 8 10 8h199v569q0 8 8 8h512q10 0 10 -8v-223q0 -8 -10 -8h-283v-946h283q10 0 10 -9v-223q0 -8 -10 -8z" />
    <glyph glyph-name="bar" unicode="|" horiz-adv-x="405" 
d="M314 0h-225q-8 0 -8 8v1409q0 8 8 8h221q9 0 9 -8v-1409q0 -8 -5 -8z" />
    <glyph glyph-name="braceright" unicode="}" horiz-adv-x="831" 
d="M599 0h-512q-10 0 -10 8v223q0 9 10 9h283v946h-283q-10 0 -10 8v223q0 8 10 8h512q8 0 8 -8v-569h199q10 0 10 -8v-224q0 -8 -10 -8h-199v-600q0 -8 -8 -8z" />
    <glyph glyph-name="asciitilde" unicode="~" horiz-adv-x="972" 
d="M624 625q-59 0 -106 22q-40 17 -84.5 40.5t-75.5 23.5q-39 0 -59.5 -19.5t-20.5 -48.5q0 -8 -8 -8h-185q-8 0 -8 8q0 52 32 110q32 56 90 95t140 39q59 0 105 -20q36 -16 77 -38t66 -22q29 0 50.5 18.5t21.5 57.5q0 8 8 8h184q8 0 8 -8q0 -84 -33 -141
q-34 -58 -88.5 -87.5t-113.5 -29.5z" />
    <glyph glyph-name="uni00A0" unicode="&#xa0;" horiz-adv-x="532" 
 />
    <glyph glyph-name="guillemotleft" unicode="&#xab;" horiz-adv-x="1243" 
d="M489 213l-424 442q-12 11 -14 33.5t14 38.5l435 444q8 9 14 -2l135 -153q6 -10 0 -17l-330 -305l326 -317q8 -7 -2 -17l-139 -145q-9 -8 -15 -2zM1001 213l-424 442q-12 11 -14 33.5t14 38.5l435 444q8 9 14 -2l135 -153q6 -10 0 -17l-330 -305l326 -317q8 -7 -2 -17
l-139 -145q-9 -8 -15 -2z" />
    <glyph glyph-name="guillemotright" unicode="&#xbb;" horiz-adv-x="1243" 
d="M665 657l-434 -444q-9 -8 -15 2l-135 154q-6 10 0 16l330 305l-326 318q-8 6 2 16l140 145q8 10 14 2l424 -442q12 -10 14 -32.5t-14 -39.5zM1177 657l-434 -444q-9 -8 -15 2l-135 154q-6 10 0 16l330 305l-326 318q-8 6 2 16l140 145q8 10 14 2l424 -442
q12 -10 14 -32.5t-14 -39.5z" />
    <glyph glyph-name="uni1780" unicode="&#x1780;" horiz-adv-x="1298" 
d="M1148 1499v-250h-999v250h999zM1148 850v-850h-350v850h-299v-850h-350v850q0 250 250 250h500q249 0 249 -250z" />
    <glyph glyph-name="uni1781" unicode="&#x1781;" horiz-adv-x="1298" 
d="M575 586l-76 -27v-309h299v350h350v-350q0 -250 -249 -250h-500q-250 0 -250 250v420l350 100q299 102 299 281v198h-299v-149h49v-201h-249q-150 0 -150 100v250q0 250 250 250h500q249 0 249 -250v-198q-19 -295 -573 -465z" />
    <glyph glyph-name="uni1782" unicode="&#x1782;" horiz-adv-x="1298" 
d="M1148 1499v-250h-999v250h999zM1148 850v-850h-350v850h-299v-508l99 184l133 -71l-232 -428v-27h-350v850q0 250 250 250h500q249 0 249 -250z" />
    <glyph glyph-name="uni1783" unicode="&#x1783;" horiz-adv-x="1949" 
d="M149 250v999h-100v250h451v-1249h299v749l-150 158l201 342h299v-250h-289l289 -250v-749h301v749l-152 158l201 342h299v-250h-289l289 -250v-749q0 -250 -250 -250h-1149q-250 0 -250 250z" />
    <glyph glyph-name="uni1784" unicode="&#x1784;" horiz-adv-x="1298" 
d="M497 999v-706l152 145l149 -145v807h-401q-250 0 -250 200v299h350v-299h291v199h361v-199q0 -53 -30 -100t-83 -74q-30 -14 -57 -20l170 -107v-999h-351l-149 145l-152 -145h-350v801h-49v198h399z" />
    <glyph glyph-name="uni1785" unicode="&#x1785;" horiz-adv-x="1298" 
d="M150 250v749l-150 158l201 342h950v-250h-940l289 -250v-749h301v649h-101v201h451v-850q0 -250 -252 -250h-500q-249 0 -249 250z" />
    <glyph glyph-name="uni1786" unicode="&#x1786;" horiz-adv-x="1298" 
d="M1151 1100v-1100h-350l-301 229v-229h-350v250h-101v250h101v499l-150 158l201 342h950v-250h-940l289 -250v-499l301 -230v629h-101v201h451z" />
    <glyph glyph-name="uni1787" unicode="&#x1787;" horiz-adv-x="1298" 
d="M201 1499h600v100h350v-350h-940l289 -250v-706l149 145l152 -145v807h350v-1100h-350l-152 145l-149 -145h-350v999l-150 158z" />
    <glyph glyph-name="uni1788" unicode="&#x1788;" horiz-adv-x="2598" 
d="M1148 1249v-999h301v749l-149 158l199 342h301v-250h-291l291 -250v-749h299v749l-150 158l201 342h299v-250h-291l291 -250v-749q0 -250 -250 -250h-1151q-250 0 -250 250v999h-299v-999h101v-250h-451v1249q0 250 250 250h500q249 0 249 -250z" />
    <glyph glyph-name="uni1789" unicode="&#x1789;" horiz-adv-x="1949" 
d="M149 1499h350l150 -145l149 145h350v-1499h-350v1206l-149 -145l-150 145v-956h101v-250h-451v1499zM1200 1249v250h600v-1499h-351v1249h-249zM399 -451h-250v250h250q347 0 754 -299h296v150h-149v250h299q201 0 201 -199v-201q0 -200 -201 -200h-588
q-364 249 -612 249z" />
    <glyph glyph-name="uni178A" unicode="&#x178a;" horiz-adv-x="1298" 
d="M950 1151h-801v348h399v-98h-49v-51h299v249h350v-299q0 -149 -198 -149zM649 438l149 -145v758h350v-1051h-350l-149 145l-150 -145h-350v1051h350v-758z" />
    <glyph glyph-name="uni178B" unicode="&#x178b;" horiz-adv-x="1298" 
d="M999 1599h150v-350h-289l289 -250v-749q0 -250 -250 -250h-500q-250 0 -250 250v999h-100v250h451v-1249h299v749l-150 158l201 342h149v100z" />
    <glyph glyph-name="uni178C" unicode="&#x178c;" horiz-adv-x="1298" 
d="M798 1051v155l-149 -145l-150 145v-155h49v-152h-399v600h350l150 -145l149 145h350v-448q-19 -295 -573 -465l-76 -27v-358l299 149v250h350v-600h-350v150l-299 -150h-350v670l350 100q299 102 299 281z" />
    <glyph glyph-name="uni178D" unicode="&#x178d;" horiz-adv-x="1949" 
d="M1148 1499v-999l301 -230v729l-149 158l199 342h301v-250h-291l291 -250v-999h-351l-301 229v-229h-350v250h-98v250h98v706l-149 -145l-150 145v-956h101v-250h-451v1499h350l150 -145l149 145h350z" />
    <glyph glyph-name="uni178E" unicode="&#x178e;" horiz-adv-x="2598" 
d="M1800 0h-351l-149 145l-152 -145h-350v1249h-299v-999h101v-250h-451v1249q0 250 250 250h500q249 0 249 -250v-956l152 145l149 -145v956q0 250 250 250h500q250 0 250 -250v-1249h-350v1249h-299v-1249z" />
    <glyph glyph-name="uni178F" unicode="&#x178f;" horiz-adv-x="1298" 
d="M1148 1499v-250h-999v250h999zM499 850v-600h101v-250h-451v850q0 250 250 250h500q249 0 249 -250v-850h-350v850h-299z" />
    <glyph glyph-name="uni1790" unicode="&#x1790;" horiz-adv-x="1298" 
d="M201 1499h600v100h350v-350h-940l289 -250v-749h301v649h-101v201h451v-850q0 -250 -252 -250h-500q-249 0 -249 250v749l-150 158z" />
    <glyph glyph-name="uni1791" unicode="&#x1791;" horiz-adv-x="1298" 
d="M1148 1249v-198q0 -101 -149 -101h-250v201h49v98h-299v-250q0 -127 215 -178l137 -30q11 11 27.5 25.5t38.5 33.5h231v-207q0 -72 -102 -104l102 -50v-239q0 -250 -249 -250h-500q-250 0 -250 250v371l350 -70v-301h299v336l-299 73q-350 78 -350 340v250q0 250 250 250
h500q249 0 249 -250z" />
    <glyph glyph-name="uni1792" unicode="&#x1792;" horiz-adv-x="1298" 
d="M150 999l-150 158l201 342h950v-250h-940l289 -250v-706l149 145l152 -145v606h-101v201h451v-1100h-350l-152 145l-149 -145h-350v999z" />
    <glyph glyph-name="uni1793" unicode="&#x1793;" horiz-adv-x="1298" 
d="M749 899v201h49v149h-299v-250q0 -136 299 -219l350 -82v-698h-350l-149 145l-150 -145h-350v600h350v-307l150 145l149 -145v282l-74 21q-575 158 -575 403v250q0 250 250 250h500q249 0 249 -250v-350h-399z" />
    <glyph glyph-name="uni1794" unicode="&#x1794;" horiz-adv-x="1298" 
d="M500 1249h-289l289 -250v-749h301v749l-152 158l201 342h301v-250h-291l291 -250v-749q0 -250 -252 -250h-500q-249 0 -249 250v749l-150 158l201 342h299v-250z" />
    <glyph glyph-name="uni1795" unicode="&#x1795;" horiz-adv-x="1298" 
d="M649 145l-149 -145h-350v999l-150 158l201 342h600v100h350v-350h-940l289 -250v-706l149 145l152 -145v606h-101v201h451v-1100h-350z" />
    <glyph glyph-name="uni1796" unicode="&#x1796;" horiz-adv-x="1298" 
d="M149 1499h350l150 -145l149 145h350v-1499h-350v1206l-149 -145l-150 145v-956h101v-250h-451v1499z" />
    <glyph glyph-name="uni1797" unicode="&#x1797;" horiz-adv-x="1298" 
d="M1149 1499v-250h-1000v250h1000zM1149 850v-850h-350v850h-299v-850h-451v250h100v600q0 250 250 250h500q250 0 250 -250z" />
    <glyph glyph-name="uni1798" unicode="&#x1798;" horiz-adv-x="1298" 
d="M500 250h301v350h-250v250h250v149l-152 158l201 342h301v-250h-291l291 -250v-749q0 -250 -252 -250h-500q-249 0 -249 250v749l-150 158l201 342h299v-250h-289l289 -250v-749z" />
    <glyph glyph-name="uni1799" unicode="&#x1799;" horiz-adv-x="1949" 
d="M149 250v1249h451v-250h-101v-999h299v749l-149 158l200 342h299v-250h-288l288 -250v-749h301v749l-149 158l199 342h301v-250h-291l291 -250v-749q0 -250 -250 -250h-1151q-250 0 -250 250z" />
    <glyph glyph-name="uni179A" unicode="&#x179a;" horiz-adv-x="649" 
d="M150 250v749l-150 158l201 342h299v-250h-289l289 -250v-999h-451v250h101z" />
    <glyph glyph-name="uni179B" unicode="&#x179b;" horiz-adv-x="1949" 
d="M1148 1249v-999h301v749l-149 158l199 342h301v-250h-291l291 -250v-749q0 -250 -250 -250h-502q-250 0 -250 250v999h-299v-999h101v-250h-451v1249q0 250 250 250h500q249 0 249 -250z" />
    <glyph glyph-name="uni179C" unicode="&#x179c;" horiz-adv-x="649" 
d="M0 1157l201 342h149v100h150v-350h-289l289 -250v-999h-451v250h101v749z" />
    <glyph glyph-name="uni179D" unicode="&#x179d;" horiz-adv-x="1298" 
d="M1148 1499v-250h-999v250h999zM1148 850v-201h101v-198h-101v-451h-350v451h-69l-230 -424v-27h-350v850q0 250 250 250h500q249 0 249 -250zM598 526l51 -28v151h149v201h-299v-508z" />
    <glyph glyph-name="uni179E" unicode="&#x179e;" horiz-adv-x="1298" 
d="M500 250h301v399h-152v201h152v149l-152 158l201 342h301v-250h-291l291 -250v-149h98v-201h-98v-399q0 -250 -252 -250h-500q-249 0 -249 250v749l-150 158l201 342h299v-250h-289l289 -250v-749z" />
    <glyph glyph-name="uni179F" unicode="&#x179f;" horiz-adv-x="1949" 
d="M149 1237l150 262h700v-250h-590l174 -149h316q249 0 249 -250v-600h301v749l-149 158l199 342h301v-250h-291l291 -250v-749q0 -250 -250 -250h-502q-250 0 -250 250v600h-299v-600h101v-250h-451v850q0 200 156 240z" />
    <glyph glyph-name="uni17A0" unicode="&#x17a0;" horiz-adv-x="1949" 
d="M1800 1249v-1249h-350v1249h-299v-999q0 -250 -252 -250h-500q-249 0 -249 250v749l-150 158l201 342h299v-250h-289l289 -250v-749h301v999q0 250 250 250h499q250 0 250 -250z" />
    <glyph glyph-name="uni17A1" unicode="&#x17a1;" horiz-adv-x="1949" 
d="M1148 1249v-198q0 -101 -149 -101h-250v201h49v98h-299v-250q0 -127 215 -178l137 -30q11 11 27.5 25.5t38.5 33.5h231v-207q0 -72 -102 -104l102 -50v-239q0 -250 -249 -250h-500q-250 0 -250 250v371l350 -70v-301h299v336l-299 73q-350 78 -350 340v250q0 250 250 250
h500q249 0 249 -250zM1148 -408l152 148l149 -148v1407l-149 158l199 342h301v-250h-291l291 -250v-1699h-351l-149 145l-152 -145h-350v401h-49v199h399v-308z" />
    <glyph glyph-name="uni17A2" unicode="&#x17a2;" horiz-adv-x="1298" 
d="M0 1157l201 342h299v-250h-289l289 -250v-999h-451v250h101v749zM649 1157l201 342h301v-250h-291l291 -250v-999h-451v250h101v350h-250v250h250v149z" />
    <glyph glyph-name="uni17A3" unicode="&#x17a3;" horiz-adv-x="1298" 
d="M0 1157l201 342h299v-250h-289l289 -250v-999h-451v250h101v749zM649 1157l201 342h301v-250h-291l291 -250v-999h-451v250h101v350h-250v250h250v149z" />
    <glyph glyph-name="uni17A4" unicode="&#x17a4;" horiz-adv-x="1949" 
d="M0 1157l201 342h299v-250h-289l289 -250v-999h-451v250h101v749zM1151 999v-999h-451v250h101v350h-250v250h250v149l-152 158l201 342h700q250 0 250 -250v-1249h-350v1249h-590z" />
    <glyph glyph-name="uni17A5" unicode="&#x17a5;" horiz-adv-x="1298" 
d="M798 1499v100h350v-350h-999v250h649zM499 850v-600h101v-250h-451v850q0 250 250 250h500q249 0 249 -250v-850h-350v850h-299z" />
    <glyph glyph-name="uni17A6" unicode="&#x17a6;" horiz-adv-x="1949" 
d="M1800 1749v-2216q0 -127 -250 -127h-451q-301 0 -301 127v258h-299v-172h101v-213h-402v385q0 127 301 127h299q301 0 301 -127v-258h350v2216h-301v-98h-350v649h350v-350h402q250 0 250 -201zM1148 1249v-1249h-350v1249h-299v-999h101v-250h-451v1249q0 250 250 250
h500q249 0 249 -250z" />
    <glyph glyph-name="uni17A7" unicode="&#x17a7;" horiz-adv-x="1298" 
d="M499 559v-309h299v350h350v-801h-350v201h-399q-250 0 -250 250v420l350 100q299 102 299 281v198h-299v-149h49v-201h-249q-150 0 -150 100v250q0 250 250 250h500q249 0 249 -250v-198q-19 -295 -573 -465z" />
    <glyph glyph-name="uni17A8" unicode="&#x17a8;" horiz-adv-x="1298" 
d="M1148 1901v-250h-999v250h999zM499 559v-309h299v350h350v-801h-350v201h-399q-250 0 -250 250v420l350 100q299 102 299 281v198h-299v-149h49v-201h-249q-150 0 -150 100v250q0 250 250 250h500q249 0 249 -250v-198q-19 -295 -573 -465z" />
    <glyph glyph-name="uni17A9" unicode="&#x17a9;" horiz-adv-x="1298" 
d="M499 559v-309h299v350h201v-801h-201v201h-399q-250 0 -250 250v420l350 100q299 102 299 281v198h-299v-149h49v-201h-249q-150 0 -150 100v250q0 250 250 250h500q249 0 249 -250v-198q-19 -295 -573 -465zM1300 -201h-201v801h201v-801z" />
    <glyph glyph-name="uni17AA" unicode="&#x17aa;" horiz-adv-x="1298" 
d="M798 1901v100h350v-350h-999v250h649zM499 559v-309h299v350h350v-801h-350v201h-399q-250 0 -250 250v420l350 100q299 102 299 281v198h-299v-149h49v-201h-249q-150 0 -150 100v250q0 250 250 250h500q249 0 249 -250v-198q-19 -295 -573 -465z" />
    <glyph glyph-name="uni17AB" unicode="&#x17ab;" horiz-adv-x="1298" 
d="M500 1249h-289l289 -250v-749h301v749l-152 158l201 342h301v-250h-291l291 -250v-749q0 -250 -252 -250h-500q-249 0 -249 250v749l-150 158l201 342h299v-250zM451 -700h-301v200h301q350 0 350 150h-152v250h502v-250q0 -350 -700 -350z" />
    <glyph glyph-name="uni17AC" unicode="&#x17ac;" horiz-adv-x="1298" 
d="M500 1249h-289l289 -250v-749h301v749l-152 158l201 342h301v-250h-291l291 -250v-749q0 -250 -252 -250h-500q-249 0 -249 250v749l-150 158l201 342h299v-250zM1126 -475q31 -25 74 -25h100v-200h-100q-136 0 -219 77q-151 -77 -530 -77h-301v200h301q350 0 350 150
h-152v250h502v-250q0 -71 -25 -125z" />
    <glyph glyph-name="uni17AD" unicode="&#x17ad;" horiz-adv-x="1298" 
d="M149 1499h350l150 -145l149 145h350v-1499h-350v1206l-149 -145l-150 145v-956h101v-250h-451v1499zM448 -700h-299v200h299q350 0 350 150h-149v250h499v-250q0 -350 -700 -350z" />
    <glyph glyph-name="uni17AE" unicode="&#x17ae;" horiz-adv-x="1298" 
d="M149 1499h350l150 -145l149 145h350v-1499h-350v1206l-149 -145l-150 145v-956h101v-250h-451v1499zM1126 -475q31 -25 74 -25h100v-200h-100q-137 0 -222 77q-148 -77 -530 -77h-299v200h299q350 0 350 150h-149v250h499v-250q0 -71 -22 -125z" />
    <glyph glyph-name="uni17AF" unicode="&#x17af;" horiz-adv-x="1298" 
d="M1149 1249v-1249h-351l-149 145l-152 -145h-350v801h-49v198h399v-706l152 145l149 -145v956h-301v-98h-350v698h350v-350h402q250 0 250 -250z" />
    <glyph glyph-name="uni17B0" unicode="&#x17b0;" horiz-adv-x="1298" 
d="M149 1499h350l150 -145l149 145h350v-1499h-350v1206l-149 -145l-150 145v-956h101v-250h-451v1499zM798 -49h350v-350q0 -301 -227 -301q-149 0 -256 120q-88 -120 -303 -120q-213 0 -213 200v201q403 0 649 250zM651 -303q73 -148 110 -148t37 80v168
q-62 -56 -147 -100zM634 -311q-64 -32 -115 -55t-91 -37q0 -66 73 -66q58 0 133 158z" />
    <glyph glyph-name="uni17B1" unicode="&#x17b1;" horiz-adv-x="1298" 
d="M798 1599v101h-649v250h999v-351h-350zM499 559v-309h299v350h350v-801h-350v201h-399q-250 0 -250 250v420l350 100q299 102 299 281v198h-299v-149h49v-201h-249q-150 0 -150 100v250q0 250 250 250h500q249 0 249 -250v-198q-19 -295 -573 -465z" />
    <glyph glyph-name="uni17B2" unicode="&#x17b2;" horiz-adv-x="1298" 
d="M1148 1499v-250h-649v-999h299v160q0 90 -98 90v200l199 82v68h-199v250h448v-484l-149 -36q149 -50 149 -129v-201q0 -250 -249 -250h-500q-250 0 -250 250v999q0 250 250 250h749z" />
    <glyph glyph-name="uni17B3" unicode="&#x17b3;" horiz-adv-x="1298" 
d="M1148 2001v-350h-700v-101h-299v351h649v100h350zM499 559v-309h299v350h350v-801h-350v201h-399q-250 0 -250 250v420l350 100q299 102 299 281v198h-299v-149h49v-201h-249q-150 0 -150 100v250q0 250 250 250h500q249 0 249 -250v-198q-19 -295 -573 -465z" />
    <glyph glyph-name="uni17B4" unicode="&#x17b4;" horiz-adv-x="1204" 
 />
    <glyph glyph-name="uni17B5" unicode="&#x17b5;" horiz-adv-x="1204" 
 />
    <glyph glyph-name="uni17B6" unicode="&#x17b6;" horiz-adv-x="649" 
d="M502 1249v-1249h-350v1249h-250v250h350q250 0 250 -250z" />
    <glyph glyph-name="uni17B7" unicode="&#x17b7;" 
d="M-149 1749v-98h-899v98q0 152 90 225q89 76 270 76q151 0 285 -76q136 -74 254 -225zM-688 1849q-61 0 -90 -24q-30 -25 -30 -76h469q-53 50 -142 76q-88 24 -207 24z" />
    <glyph glyph-name="uni17B8" unicode="&#x17b8;" 
d="M-327 1925v174h178v-448h-899v98q0 152 90 225q89 76 270 76q98 0 187 -31q91 -30 174 -94zM-688 1849q-61 0 -90 -24q-30 -25 -30 -76h469q-53 50 -142 76q-88 24 -207 24z" />
    <glyph glyph-name="uni17B9" unicode="&#x17b9;" 
d="M-157 1749v-98h-891v98q0 152 90 225q88 76 266 76q106 0 199 -37q44 86 188 86q103 0 154 -45q53 -44 53 -131q0 -108 -78 -149q5 -7 10 -13t9 -12zM-217 1923q0 39 -22 57q-22 19 -66 19q-63 0 -81 -37q69 -45 133 -104q36 18 36 65zM-692 1849q-59 0 -88 -24
q-30 -25 -30 -76h462q-50 51 -139 76q-85 24 -205 24z" />
    <glyph glyph-name="uni17BA" unicode="&#x17ba;" 
d="M-268 1878v221h119v-448h-899v98q0 152 90 225q89 76 270 76q91 0 181 -29v78h118v-133q65 -38 121 -88zM-688 1849q-61 0 -90 -24q-30 -25 -30 -76h469q-53 50 -142 76q-88 24 -207 24z" />
    <glyph glyph-name="uni17BB" unicode="&#x17bb;" 
d="M-448 -700v600h299v-600h-299z" />
    <glyph glyph-name="uni17BC" unicode="&#x17bc;" 
d="M-798 -551v451h201v-451h149v451h299v-451q0 -149 -198 -149h-250q-201 0 -201 149z" />
    <glyph glyph-name="uni17BD" unicode="&#x17bd;" 
d="M-648 -510l98 129l100 -129v410h301v-600h-301l-100 131l-98 -131h-201v600h201v-410z" />
    <glyph glyph-name="uni17BE" unicode="&#x17be;" 
d="M-327 1925v174h178v-448h-899v98q0 152 90 225q89 76 270 76q98 0 187 -31q91 -30 174 -94zM-688 1849q-61 0 -90 -24q-30 -25 -30 -76h469q-53 50 -142 76q-88 24 -207 24z" />
    <glyph glyph-name="uni17BF" unicode="&#x17bf;" horiz-adv-x="649" 
d="M182 1976v224h119v-304q201 -73 201 -245v-2151q0 -200 -250 -200h-500q-250 0 -250 200v400h351v-400h299v2151q0 98 -150 98h-600v100q0 153 90 226q90 75 270 75q94 0 181 -28v78h118v-134q63 -35 121 -90zM-238 1950q-62 0 -90 -25q-30 -24 -30 -76h469
q-53 52 -142 76q-87 25 -207 25z" />
    <glyph glyph-name="uni17C0" unicode="&#x17c0;" horiz-adv-x="649" 
d="M-499 -500v400h350v-400h299v2300h-299v-100h-350v649h350v-348h400q249 0 249 -201v-2300q0 -200 -249 -200h-500q-250 0 -250 200z" />
    <glyph glyph-name="uni17C1" unicode="&#x17c1;" horiz-adv-x="649" 
d="M0 1157l201 342h299v-250h-289l289 -250v-749h100v-250h-450v999z" />
    <glyph glyph-name="uni17C2" unicode="&#x17c2;" horiz-adv-x="649" 
d="M381 1599h-381v451h381v-201h-82v-69h82q119 0 119 268h149q0 -449 -268 -449zM0 1157l201 342h299v-250h-289l289 -250v-749h100v-250h-450v999z" />
    <glyph glyph-name="uni17C3" unicode="&#x17c3;" horiz-adv-x="649" 
d="M201 2050h299v-451h-451v150h201v152h-49v-52h-152v250q0 51 -49 51v101q201 0 201 -152v-49zM0 1157l201 342h299v-250h-289l289 -250v-749h100v-250h-450v999z" />
    <glyph glyph-name="uni17C4" unicode="&#x17c4;" horiz-adv-x="649" 
d="M502 1249v-1249h-350v1249h-250v250h350q250 0 250 -250z" />
    <glyph glyph-name="uni17C5" unicode="&#x17c5;" horiz-adv-x="649" 
d="M152 1499v451h-150v250h500v-2200h-350v1249h-250v250h250z" />
    <glyph glyph-name="uni17C6" unicode="&#x17c6;" 
d="M-649 2251q78 0 148 -39q71 -39 112 -111.5t41 -150.5q0 -79 -40 -149q-40 -72 -110.5 -111t-150.5 -39q-76 0 -148 39q-71 39 -111 110.5t-40 149.5q0 77 41 151q41 72 111.5 111t146.5 39zM-649 2050q-40 0 -69 -29.5t-29 -70.5t29 -71t69 -30q44 0 72 29t28 72
q0 41 -29 70.5t-71 29.5z" />
    <glyph glyph-name="uni17C7" unicode="&#x17c7;" horiz-adv-x="899" 
d="M448 1499q75 0 148 -38q71 -38 112 -110.5t41 -150.5q0 -79 -40 -149q-40 -72 -110.5 -112t-150.5 -40q-78 0 -148 40t-110.5 111.5t-40.5 149.5q0 77 41 151q41 72 111.5 110t146.5 38zM448 1300q-40 0 -69 -29t-29 -71t28 -71t70 -29q44 0 72 28.5t28 71.5q0 42 -29 71
t-71 29zM448 600q76 0 148 -39q71 -39 112 -110.5t41 -151.5q0 -78 -40 -148t-110.5 -110.5t-150.5 -40.5q-78 0 -148 40t-110.5 110.5t-40.5 148.5q0 79 41 152q41 71 111.5 110t146.5 39zM448 399q-41 0 -69.5 -28t-28.5 -72q0 -43 27.5 -70.5t70.5 -27.5q44 0 72 27.5
t28 70.5q0 44 -28.5 72t-71.5 28z" />
    <glyph glyph-name="uni17C8" unicode="&#x17c8;" horiz-adv-x="598" 
d="M299 1350q39 0 73 -19q35 -19 55.5 -55.5t20.5 -75.5q0 -40 -19 -74q-19 -36 -55.5 -55.5t-74.5 -19.5q-39 0 -74 20t-55.5 55t-20.5 74t21 75q20 36 56 55.5t73 19.5zM299 451q39 0 73 -19q35 -19 55.5 -55.5t20.5 -77.5q0 -40 -19 -74q-19 -35 -55.5 -55t-74.5 -20
q-39 0 -74 20q-76 44 -76 129q0 41 21 77q20 36 56 55.5t73 19.5z" />
    <glyph glyph-name="uni17C9" unicode="&#x17c9;" 
d="M-722 2251v-600h-201v600h201zM-372 2251v-600h-201v600h201z" />
    <glyph glyph-name="uni17CA" unicode="&#x17ca;" 
d="M-570 1849h421v-250h-999v250h424l76 -49z" />
    <glyph glyph-name="uni17CB" unicode="&#x17cb;" 
d="M-524 2251v-600h-250v600h250z" />
    <glyph glyph-name="uni17CC" unicode="&#x17cc;" 
d="M-481 1849h-309v-90h590v-108h-899v299h436q156 0 156 149h307v-149q0 -101 -281 -101z" />
    <glyph glyph-name="uni17CD" unicode="&#x17cd;" 
d="M-481 1849h-309v-90h148v-108h-457v299h436q156 0 156 149h307v-149q0 -101 -281 -101z" />
    <glyph glyph-name="uni17CE" unicode="&#x17ce;" 
d="M-348 1849h-201v-198h-198v198h-201v201h201v201h198v-201h201v-201z" />
    <glyph glyph-name="uni17CF" unicode="&#x17cf;" 
d="M-650 1737l-134 -86h-315v399h434q154 0 154 100h311v-100q0 -100 -278 -100h-308v-181l138 86l137 -86v101h311v-219h-311z" />
    <glyph glyph-name="uni17D0" unicode="&#x17d0;" 
d="M-223 1651h-676v350h393v-100h-110v-52h335v201h281v-250q0 -149 -223 -149z" />
    <glyph glyph-name="uni17D1" unicode="&#x17d1;" 
d="M-149 1901v-250h-999v250h999z" />
    <glyph glyph-name="uni17D2" unicode="&#x17d2;" 
d="M-348 -500h-201v-200h-198v200h-201v201h201v199h198v-199h201v-201z" />
    <glyph glyph-name="uni17D3" unicode="&#x17d3;" 
d="M-648 2349q112 0 220 -44q107 -44 167.5 -129t60.5 -175q0 -92 -59 -175q-58 -83 -165.5 -129t-223.5 -46t-223 46t-167.5 129t-60.5 175q0 90 61 175q62 85 169.5 129t220.5 44zM-648 2118q-46 0 -81.5 -35t-35.5 -82q0 -46 36 -82.5t81 -36.5q50 0 83 35t33 84
q0 48 -33.5 82.5t-82.5 34.5z" />
    <glyph glyph-name="uni17D4" unicode="&#x17d4;" horiz-adv-x="1298" 
d="M499 1100h-350v399h350v-178q93 0 299 178h350v-1499h-350v1245q-145 -145 -299 -145z" />
    <glyph glyph-name="uni17D5" unicode="&#x17d5;" horiz-adv-x="1798" 
d="M499 1100h-350v399h350v-178q93 0 299 178h350v-1499h-350v1245q-145 -145 -299 -145zM1648 0h-348v1499h348v-1499z" />
    <glyph glyph-name="uni17D6" unicode="&#x17d6;" horiz-adv-x="899" 
d="M448 1499q75 0 148 -38q71 -38 112 -110.5t41 -150.5t-39 -149q-40 -72 -112 -112t-150 -40t-149 40q-72 40 -111 111.5t-39 149.5t40 151q40 72 112 110t147 38zM448 1300q-38 0 -69 -29.5t-31 -70.5t30 -70.5t70 -29.5q42 0 71.5 29t29.5 71t-29.5 71t-71.5 29z
M850 801v-101h-801v101h801zM448 600q76 0 148 -39q71 -39 112 -110.5t41 -151.5q0 -77 -39 -148q-40 -70 -112 -110.5t-150 -40.5t-149 40q-72 40 -111 110.5t-39 148.5q0 81 40 152t112 110t147 39zM448 399q-39 0 -69.5 -28.5t-30.5 -71.5q0 -42 30 -70t70 -28
q43 0 72 28t29 70q0 44 -29 72t-72 28z" />
    <glyph glyph-name="uni17D7" unicode="&#x17d7;" horiz-adv-x="1298" 
d="M649 1360l149 139h350v-1499h-350v1239l-149 -139l-150 139v-139h-350v399h350z" />
    <glyph glyph-name="uni17D8" unicode="&#x17d8;" horiz-adv-x="4548" 
d="M499 1100h-350v399h350v-178q93 0 299 178h350v-1499h-350v1245q-145 -145 -299 -145zM2449 1249v-999h301v749l-152 158l201 342h299v-250h-289l289 -250v-749q0 -250 -250 -250h-499q-250 0 -250 250v999h-299v-999h98v-250h-449v1249q0 250 250 250h500
q250 0 250 -250zM3749 1100h-350v399h350v-178q94 0 299 178h351v-1499h-351v1245q-145 -145 -299 -145z" />
    <glyph glyph-name="uni17D9" unicode="&#x17d9;" horiz-adv-x="1398" 
d="M700 0q-551 0 -551 750q0 749 551 749q549 0 549 -749q0 -750 -549 -750zM700 1374q-414 0 -414 -624q0 -625 414 -625q412 0 412 625q0 624 -412 624zM700 250q-277 0 -277 500q0 499 277 499q274 0 274 -499q0 -500 -274 -500zM700 1124q-137 0 -137 -374
q0 -375 137 -375t137 375q0 374 -137 374z" />
    <glyph glyph-name="uni17DA" unicode="&#x17da;" horiz-adv-x="2799" 
d="M524 1499q379 0 379 -409q0 -271 -314 -271q-61 0 -61 68q0 67 61 67q187 0 187 138q0 272 -248 272q-254 0 -254 -272v-682q0 -277 254 -277q126 0 250 151q126 152 250 464l245 612h127l314 -995l184 858h127l186 -713l127 305h250q62 0 62 -67q0 -68 -62 -68h-188
l-125 -408h-125l-189 682l-186 -819h-125l-313 1057l-209 -512q-278 -680 -604 -680q-375 0 -375 410v682q0 407 375 407z" />
    <glyph glyph-name="uni17DB" unicode="&#x17db;" horiz-adv-x="649" 
d="M150 999l-150 158l201 342h299v-250h-289l289 -250v-125h149v-249h-149v-625h-451v250h101v375h-150v249h150v125z" />
    <glyph glyph-name="uni17DC" unicode="&#x17dc;" horiz-adv-x="1350" 
d="M675 -10q-237 0 -356 77.5t-119 225.5q0 70 26 108t75 52.5t128 14.5q60 0 60 -60q0 -58 -60 -58q-41 0 -41 -58q0 -146 287 -146q142 0 215 57t73 157q0 78 -34 118t-94 52.5t-160 12.5q-239 0 -357 72.5t-118 226.5q0 177 120 272.5t355 95.5q475 0 475 -300
q0 -71 -25 -108q-25 -39 -74.5 -53.5t-128.5 -14.5q-60 0 -60 59q0 58 60 58q41 0 41 59q0 69 -73 107t-215 38q-141 0 -214 -57t-73 -156q0 -78 34 -118q33 -40 93.5 -53t159.5 -13q239 0 357 -72.5t118 -226.5q0 -177 -120 -273t-355 -96z" />
    <glyph glyph-name="uni17DD" unicode="&#x17dd;" 
d="M-1089 1470q0 301 445 301t445 -301h-194q0 181 -252 181q-253 0 -253 -181h-191z" />
    <glyph glyph-name="uni17E0" unicode="&#x17e0;" horiz-adv-x="1298" 
d="M149 250v999q0 250 250 250h500q249 0 249 -250v-999q0 -250 -249 -250h-500q-250 0 -250 250zM798 1249h-299v-999h299v999z" />
    <glyph glyph-name="uni17E1" unicode="&#x17e1;" horiz-adv-x="1298" 
d="M899 0h-500v250h399v999h-299v-399h150v-250h-500v649q0 250 250 250h500q249 0 249 -250v-999q0 -250 -249 -250z" />
    <glyph glyph-name="uni17E2" unicode="&#x17e2;" horiz-adv-x="1648" 
d="M600 1499h348l100 -123l101 123h350v-1249q0 -250 -250 -250h-850q-250 0 -250 250v1249h-100v250h201q250 0 250 -150v-1349h649v983l-101 -125l-100 125v-283h51v-194h-399v743z" />
    <glyph glyph-name="uni17E3" unicode="&#x17e3;" horiz-adv-x="1949" 
d="M1800 0h-351v1249h-301v-1249h-350v1249h-299v-999h101v-250h-451v1249q0 250 250 250h1151q250 0 250 -250v-1249z" />
    <glyph glyph-name="uni17E4" unicode="&#x17e4;" horiz-adv-x="1298" 
d="M500 1599v-1349h378l-229 199v352q0 49 21 94t75 74.5t154 29.5h250v-198h-150v-404l150 -147l-49 -250h-652q-299 0 -299 250v1249h-100v250h201q250 0 250 -150z" />
    <glyph glyph-name="uni17E5" unicode="&#x17e5;" horiz-adv-x="1298" 
d="M149 250v850l170 106q-28 6 -57 21q-54 26 -83.5 73.5t-29.5 100.5v198h350v-249h299v350h350v-350q0 -199 -198 -199h-451v-901h389l-239 199v301q0 50 21 96t75 75t154 29h249v-200h-149v-353l149 -147l-49 -250h-651q-149 0 -223 63q-76 61 -76 187z" />
    <glyph glyph-name="uni17E6" unicode="&#x17e6;" horiz-adv-x="1298" 
d="M1148 1249v-999q0 -250 -249 -250h-500q-250 0 -250 250v399q0 250 250 250h250v-250h-150v-399h299v999h-299v-98h-350v698h350v-350h400q249 0 249 -250z" />
    <glyph glyph-name="uni17E7" unicode="&#x17e7;" horiz-adv-x="1798" 
d="M149 1499h350l150 -145l149 145h350v-1249h152v1550h348v-1550q0 -250 -250 -250h-350q-250 0 -250 250v956l-149 -145l-150 145v-956h101v-250h-451v1499z" />
    <glyph glyph-name="uni17E8" unicode="&#x17e8;" horiz-adv-x="1298" 
d="M1148 0h-350l-149 145l-150 -145h-350v1300q0 199 250 199h399v350h350v-649h-350v100h-299v-1007l150 145l149 -145v407h-149v250h350q149 0 149 -149v-801z" />
    <glyph glyph-name="uni17E9" unicode="&#x17e9;" horiz-adv-x="1298" 
d="M649 1051h350v-250h-350q-150 0 -150 -101v-499h299v149h-149v299h317q182 0 182 -149v-299q0 -201 -249 -201h-500q-250 0 -250 201v600q40 79 109 125q-69 46 -109 125v249q0 199 250 199h399v350h350v-649h-350v100h-299v-149q0 -100 150 -100z" />
    <glyph glyph-name="uni25CC" unicode="&#x25cc;" horiz-adv-x="1217" 
d="M662 1053q0 -56 -54 -56q-53 0 -53 56q0 53 53 53q54 0 54 -53zM489 1016q0 -53 -55 -53q-53 0 -53 53q0 55 53 55q55 0 55 -55zM836 1016q0 -53 -52 -53q-57 0 -57 53q0 55 57 55q52 0 52 -55zM342 918q0 -54 -55 -54q-54 0 -54 51q0 58 54 58q55 0 55 -55zM983 918
q0 -54 -51 -54q-55 0 -55 54q0 55 55 55q51 0 51 -55zM242 770q0 -55 -52 -55q-57 0 -57 55q0 53 55 53q54 0 54 -53zM1083 770q0 -55 -55 -55q-53 0 -53 55q0 53 55 53q53 0 53 -53zM207 596q0 -53 -53 -53q-56 0 -56 53t56 53q53 0 53 -53zM1118 596q0 -53 -51 -53
q-55 0 -55 53t55 53q51 0 51 -53zM242 422q0 -53 -54 -53q-55 0 -55 53q0 55 55 55q54 0 54 -55zM1083 422q0 -53 -55 -53q-53 0 -53 53q0 55 53 55q55 0 55 -55zM342 272q0 -53 -55 -53q-54 0 -54 53q0 56 54 56q55 0 55 -56zM983 272q0 -53 -51 -53q-55 0 -55 53
q0 56 55 56q51 0 51 -56zM489 178q0 -55 -55 -55q-53 0 -53 51q0 55 53 55q55 0 55 -51zM836 174q0 -51 -52 -51q-57 0 -57 51q0 55 57 55q52 0 52 -55zM662 141q0 -55 -54 -55q-53 0 -53 55q0 54 53 54q54 0 54 -54z" />
    <glyph glyph-name="uni17D2_1783" horiz-adv-x="649" 
d="M-450 -422v340h301v-340h299v1421l-149 158l200 342h299v-250h-288l288 -250v-1421q0 -172 -249 -172h-1051q-250 0 -250 172v240h-49v100h350v-340h299z" />
    <glyph glyph-name="uni17D2_1788" horiz-adv-x="649" 
d="M-350 -422v340h301v-340h199v1421l-149 158l200 342h299v-250h-288l288 -250v-1421q0 -172 -250 -172h-849q-250 0 -250 172v213h-201v-213h100v-172h-399v385q0 127 250 127h301q250 0 250 -127v-213h198z" />
    <glyph glyph-name="uni17D2_178D" horiz-adv-x="649" 
d="M150 -406v1405l-149 158l200 342h299v-250h-288l288 -250v-1593h-350q0 33 -35.5 64.5t-92.5 52t-122 20.5h-100v-137h-299v346l-149 -82l-152 82v-174h100v-172h-399v512h299l152 -82l149 82h299v-246h100q148 0 250 -78z" />
    <glyph glyph-name="uni17D2_1794" horiz-adv-x="649" 
d="M1 -469l-150 -125h-350v512h399v-127h-49v-135l150 125l149 -125v1343l-149 158l200 342h299v-250h-288l288 -250v-1593h-350z" />
    <glyph glyph-name="uni17D2_1799" horiz-adv-x="649" 
d="M-100 -82v-170h-49v-170h299v1421l-149 158l200 342h299v-250h-288l288 -250v-1421q0 -172 -249 -172h-500q-250 0 -250 172v340h399z" />
    <glyph glyph-name="uni17D2_179A" horiz-adv-x="649" 
d="M201 1499h299v-250h-289l289 -250v-1421h301v340h350v-340q0 -172 -252 -172h-500q-249 0 -249 172v1421l-150 158z" />
    <glyph glyph-name="uni17D2_179F" horiz-adv-x="649" 
d="M503 999v-749h100v-250h-100v-422q0 -172 -250 -172h-502q-250 0 -250 172v170h-49v170h399v-340h301v422h-149v250h149v749l-149 158l199 342h301v-250h-291z" />
    <glyph glyph-name="uni1789.a" horiz-adv-x="1949" 
d="M149 1499h350l150 -145l149 145h350v-1499h-350v1206l-149 -145l-150 145v-956h101v-250h-451v1499zM1200 1249v250h600v-1499h-351v1249h-249z" />
    <glyph glyph-name="uni1794.a" horiz-adv-x="1300" 
d="M150 250v749l-150 158l201 342h950v-250h-940l289 -250v-749h301v850h350v-1180h-350v80h-402q-249 0 -249 250z" />
    <glyph glyph-name="uni17BF.b" horiz-adv-x="649" 
d="M182 1976v224h119v-304q201 -73 201 -245v-2577q0 -200 -250 -200h-500q-250 0 -250 200v250h351v-250h299v2577q0 98 -150 98h-600v100q0 153 90 226q90 75 270 75q94 0 181 -28v78h118v-134q63 -35 121 -90zM-238 1950q-62 0 -90 -25q-30 -24 -30 -76h469
q-53 52 -142 76q-87 25 -207 25z" />
    <glyph glyph-name="uni17C0.b" horiz-adv-x="649" 
d="M-499 -926v250h350v-250h299v2726h-299v-100h-350v649h350v-348h400q249 0 249 -201v-2726q0 -200 -249 -200h-500q-250 0 -250 200z" />
    <glyph glyph-name="uni17D2_179A.b" horiz-adv-x="649" 
d="M201 1499h299v-250h-289l289 -250v-1953h301v278h350v-278q0 -172 -252 -172h-500q-249 0 -249 172v1953l-150 158z" />
    <glyph glyph-name="uni17B7_17CD" 
d="M-233 1849h-70v-90h72v-108h-817v98q0 152 76 225q73 76 225 76q126 0 238 -76q8 -6 16.5 -12t17.5 -12h142q78 0 78 149h256v-149q0 -101 -234 -101zM-847 1749h370v20q-38 36 -98 56q-73 24 -172 24q-50 0 -76 -24q-24 -25 -24 -76z" />
    <glyph glyph-name="uni17D2_1780" 
d="M-200 -229v-365h-299v365h-301v-365h-299v365q0 147 250 147h399q250 0 250 -147z" />
    <glyph glyph-name="uni17D2_1781" 
d="M-499 -250v82h-301v-90h-117q-182 0 -182 27v63q0 86 250 86h399q250 0 250 -86v-98q0 -60 -300 -90q-300 -28 -300 -86v-66h301v92l299 47v-139q0 -86 -250 -86h-399q-250 0 -250 86v100q0 60 300 88q300 29 300 70z" />
    <glyph glyph-name="uni17D2_1782" 
d="M-200 -209v-385h-299v385h-301v-199l98 93l90 -78l-188 -191v-10h-299v385q0 127 250 127h399q250 0 250 -127z" />
    <glyph glyph-name="uni17D2_1784" 
d="M-702 -594q-397 0 -397 213v43q0 170 250 170h149v-127q-100 0 -100 -86t98 -86q203 0 203 385h299q0 -512 -502 -512z" />
    <glyph glyph-name="uni17D2_1785" 
d="M-198 -82v-86h101v-84h-101v-342h-651q-250 0 -250 127v258h-49v127h350v-385h299v215h-98v84h98v86h301z" />
    <glyph glyph-name="uni17D2_1786" 
d="M-799 -457v-137h-299v172h-100v127h100v213h299v-231l301 -133v194h-100v170h399v-512h-299z" />
    <glyph glyph-name="uni17D2_1787" 
d="M-499 -252h-100v84h100v86h299v-86h100v-84h-100v-342h-299l-149 125l-152 -125h-299v512h299v-321l152 124l149 -124v151z" />
    <glyph glyph-name="uni17D2_1789" 
d="M-1021 -391h-127v256h84q205 0 336 -137q131 -138 217 -138t86 123h-111v205h387v-205q0 -307 -309 -307q-186 0 -319 100q-133 103 -244 103z" />
    <glyph glyph-name="uni17D2_178A" 
d="M-200 -209v-385h-299v385h-301v-213h100v-172h-399v385q0 127 250 127h399q250 0 250 -127z" />
    <glyph glyph-name="uni17D2_178B" 
d="M-200 -82v-76h100v-131h-100v-305h-299l-149 105l-152 -105h-299v436h600v76h299zM-499 -420v131h-301v-131l152 86z" />
    <glyph glyph-name="uni17D2_178C" 
d="M-1099 -82h285l166 -76l163 76h285v-184q0 -60 -600 -119v-123l301 57v70h299v-213h-299v68l-301 -68h-299v246q600 57 600 98v49l-149 -55l-152 55v-75h-299v194z" />
    <glyph glyph-name="uni17D2_178E" 
d="M-798 -594h-351l-149 94l-152 -94h-350v385h-299v-385h-350v385q0 127 250 127h500q249 0 249 -127v-197l152 93l149 -93v197q0 127 250 127h500q250 0 250 -127v-385h-350v385h-299v-385z" />
    <glyph glyph-name="uni17D2_178F" 
d="M-200 -209v-385h-299v385h-301v-213h100v-172h-399v385q0 127 250 127h399q250 0 250 -127z" />
    <glyph glyph-name="uni17D2_1790" 
d="M-267 -315h118v-279h-118q-195 0 -389 279q-66 94 -146 94q-82 0 -82 -94v-45h105v-189h-369v283q0 184 274 184h82q156 0 289 -117q131 -116 236 -116z" />
    <glyph glyph-name="uni17D2_1791" 
d="M-540 -547v47l-219 -47h-340v281l426 35q174 12 174 63h-113v86h412v-100q0 -103 -229 -127l-371 -23v-102l600 74v-140q0 -94 -145 -94h-260z" />
    <glyph glyph-name="uni17D2_1792" 
d="M-468 -82h268v-256q0 -62 -60 -97q-58 -34 -223 -34l-110 31q0 -54 -55 -103q-56 -53 -164 -53h-287v320q287 57 459 105t172 87zM-468 -236l-162 -77l162 -33v110zM-704 -391v31l-108 -41v-91q56 0 82 25q26 28 26 76z" />
    <glyph glyph-name="uni17D2_1793" 
d="M-249 -381h100v-213h-399v86h-401q-150 0 -150 86v170q0 84 150 84h401v86h299v-86h100v-127h-100v-86zM-548 -295h-252v-86h252v86z" />
    <glyph glyph-name="uni17D2_1795" 
d="M-1099 -594v512h299v-321l152 124l149 -124v151h-100v170h399v-512h-299l-149 125l-152 -125h-299z" />
    <glyph glyph-name="uni17D2_1796" 
d="M-800 -248v-174h100v-172h-399v512h299l152 -82l149 82h299v-512h-299v346l-149 -82z" />
    <glyph glyph-name="uni17D2_1797" 
d="M-199 -209v-385h-299v385h-301v-385h-399v172h100v213q0 127 250 127h400q249 0 249 -127z" />
    <glyph glyph-name="uni17D2_1798" 
d="M-440 -469l-758 -2v209h750v180h301v-129l-123 -53q36 -1 71 -21q48 -18 74.5 -58t26.5 -85q0 -166 -168 -166t-174 125z" />
    <glyph glyph-name="uni17D2_179B" 
d="M-499 -594l-301 256v-256h-299v512h299l301 -256v256h299v-512h-299z" />
    <glyph glyph-name="uni17D2_179C" 
d="M-710 -594q-243 0 -317 56q-72 57 -72 157v86q58 11 132.5 30.5t166.5 45.5q182 53 301 137h299v-86q0 -140 -69.5 -235t-185 -143t-255.5 -48zM-800 -377q0 -44 29 -67q26 -21 82 -21q111 0 151 55q39 59 39 179q-50 -53 -135 -91q-81 -35 -166 -55z" />
    <glyph glyph-name="uni17D2_17A0" 
d="M-1099 -465v383h250v-358h110v358h375q83 0 123 -39q41 -39 41 -88v-385h-250v358h-108v-358h-375q-83 0 -123 37q-43 39 -43 92z" />
    <glyph glyph-name="uni17D2_17A2" 
d="M-1198 -594v127h100v385h299v-512h-399zM-498 -209v127h299v-512h-399v127h100v129h-249v129h249z" />
    <glyph glyph-name="uni17B7.a" 
d="M-149 2050v-100h-899v100q0 150 90 225q91 74 270 74q149 0 285 -74q136 -75 254 -225zM-688 2150q-61 0 -90 -24q-30 -27 -30 -76h469q-53 49 -142 76q-88 24 -207 24z" />
    <glyph glyph-name="uni17B8.a" 
d="M-327 2226v174h178v-450h-899v100q0 150 90 225q91 74 270 74q98 0 187 -31q89 -30 174 -92zM-688 2150q-61 0 -90 -24q-30 -27 -30 -76h469q-53 49 -142 76q-88 24 -207 24z" />
    <glyph glyph-name="uni17B9.a" 
d="M-157 2050v-100h-891v100q0 150 90 225q89 74 266 74q103 0 199 -35q44 84 188 84q104 0 154 -43q53 -44 53 -131q0 -108 -78 -149q5 -7 10 -13t9 -12zM-217 2224q0 37 -22 55q-22 21 -66 21q-63 0 -81 -39q69 -45 133 -104q36 18 36 67zM-692 2150q-59 0 -88 -24
q-30 -27 -30 -76h462q-50 49 -139 76q-85 24 -205 24z" />
    <glyph glyph-name="uni17BA.a" 
d="M-268 2177v223h119v-450h-899v100q0 150 90 225q91 74 270 74q91 0 181 -29v80h118v-135q65 -38 121 -88zM-688 2150q-61 0 -90 -24q-30 -27 -30 -76h469q-53 49 -142 76q-88 24 -207 24z" />
    <glyph glyph-name="uni17C6.a" 
d="M-649 2501q78 0 148 -39q71 -39 112 -112t41 -150q0 -79 -40 -150q-40 -72 -110.5 -110.5t-150.5 -38.5q-76 0 -148 39q-71 38 -111 110t-40 150q0 76 41 150q41 73 111.5 112t146.5 39zM-649 2300q-40 0 -69 -29.5t-29 -70.5q0 -40 29 -70.5t69 -30.5q44 0 72 29.5
t28 71.5q0 41 -29 70.5t-71 29.5z" />
    <glyph glyph-name="uni17D2_1789.a" 
d="M-1798 -82h350l150 -51l149 51h350v-283h-350v181l-149 -52l-150 52v-76h90v-105h-440v283zM-747 -170v88h600v-283h-351v195h-249zM-1499 -506h-299v88h299q346 0 756 -104h245v35h-149v86h500v-121q0 -72 -201 -72h-539q-362 88 -612 88z" />
    <glyph glyph-name="uni17BB.b" 
d="M-499 -1126v450h299v-450h-299z" />
    <glyph glyph-name="uni17BC.b" 
d="M-849 -977v301h201v-301h149v301h299v-301q0 -149 -250 -149h-198q-201 0 -201 149z" />
    <glyph glyph-name="uni17BD.b" 
d="M-698 -971l98 99l100 -99v295h301v-450h-301l-100 98l-98 -98h-201v450h201v-295z" />
    <glyph glyph-name="uni17D2_1798.b" 
d="M-440 -1016l-758 -2v184h750v158h301v-112l-123 -48q36 -1 71 -18q48 -16 74.5 -51t26.5 -76q0 -145 -168 -145t-174 110z" />
    <glyph glyph-name="uni17D2_17A0.b" 
d="M-1099 -1014v338h250v-315h110v315h375q82 0 123 -35q41 -32 41 -77v-338h-250v315h-108v-315h-375q-82 0 -123 32q-43 34 -43 80z" />
    <glyph glyph-name="uni17BB.n" 
d="M-1103 -700v600h299v-600h-299z" />
    <glyph glyph-name="uni17BC.n" 
d="M-1454 -551v451h201v-451h149v451h299v-451q0 -149 -198 -149h-250q-201 0 -201 149z" />
    <glyph glyph-name="uni17BD.n" 
d="M-1304 -510l98 129l100 -129v410h301v-600h-301l-100 131l-98 -131h-201v600h201v-410z" />
    <glyph glyph-name="uni17D2_178A.n" 
d="M-856 -209v-385h-299v385h-301v-213h100v-172h-399v385q0 127 250 127h399q250 0 250 -127z" />
    <glyph glyph-name="uni17D2_178B.n" 
d="M-856 -82v-76h100v-131h-100v-305h-299l-149 105l-152 -105h-299v436h600v76h299zM-1155 -420v131h-301v-131l152 86z" />
    <glyph glyph-name="uni17D2_178C.n" 
d="M-1755 -82h285l166 -76l163 76h285v-184q0 -60 -600 -119v-123l301 57v70h299v-213h-299v68l-301 -68h-299v246q600 57 600 98v49l-149 -55l-152 55v-75h-299v194z" />
    <glyph glyph-name="uni17D2_17A0.n" 
d="M-1755 -465v383h250v-358h110v358h375q83 0 123 -39q41 -39 41 -88v-385h-250v358h-108v-358h-375q-83 0 -123 37q-43 39 -43 92z" />
    <glyph glyph-name="uni17BB.n2" 
d="M-1093 -1126v450h299v-450h-299z" />
    <glyph glyph-name="uni17BC.n2" 
d="M-1443 -977v301h201v-301h149v301h299v-301q0 -149 -250 -149h-198q-201 0 -201 149z" />
    <glyph glyph-name="uni17BD.n2" 
d="M-1291 -971l98 99l100 -99v295h301v-450h-301l-100 98l-98 -98h-201v450h201v-295z" />
    <glyph glyph-name="uni17B7.r" 
d="M56 1749v-98h-899v98q0 152 90 225q89 76 270 76q151 0 285 -76q136 -74 254 -225zM-483 1849q-61 0 -90 -24q-30 -25 -30 -76h469q-53 50 -142 76q-88 24 -207 24z" />
    <glyph glyph-name="uni17B7_17CD.r" 
d="M-28 1849h-70v-90h72v-108h-817v98q0 152 76 225q73 76 225 76q126 0 238 -76q8 -6 16.5 -12t17.5 -12h142q78 0 78 149h256v-149q0 -101 -234 -101zM-642 1749h370v20q-38 36 -98 56q-73 24 -172 24q-50 0 -76 -24q-24 -25 -24 -76z" />
    <glyph glyph-name="uni17B8.r" 
d="M-122 1925v174h178v-448h-899v98q0 152 90 225q89 76 270 76q98 0 187 -31q91 -30 174 -94zM-483 1849q-61 0 -90 -24q-30 -25 -30 -76h469q-53 50 -142 76q-88 24 -207 24z" />
    <glyph glyph-name="uni17B9.r" 
d="M48 1749v-98h-891v98q0 152 90 225q88 76 266 76q106 0 199 -37q44 86 188 86q103 0 154 -45q53 -44 53 -131q0 -108 -78 -149q5 -7 10 -13t9 -12zM-12 1923q0 39 -22 57q-22 19 -66 19q-63 0 -81 -37q69 -45 133 -104q36 18 36 65zM-487 1849q-59 0 -88 -24
q-30 -25 -30 -76h462q-50 51 -139 76q-85 24 -205 24z" />
    <glyph glyph-name="uni17BA.r" 
d="M-63 1878v221h119v-448h-899v98q0 152 90 225q89 76 270 76q91 0 181 -29v78h118v-133q65 -38 121 -88zM-483 1849q-61 0 -90 -24q-30 -25 -30 -76h469q-53 50 -142 76q-88 24 -207 24z" />
    <glyph glyph-name="uni17C6.r" 
d="M-444 2251q78 0 148 -39q71 -39 112 -111.5t41 -150.5q0 -79 -40 -149q-40 -72 -110.5 -111t-150.5 -39q-76 0 -148 39q-71 39 -111 110.5t-40 149.5q0 77 41 151q41 72 111.5 111t146.5 39zM-444 2050q-40 0 -69 -29.5t-29 -70.5t29 -71t69 -30q44 0 72 29t28 72
q0 41 -29 70.5t-71 29.5z" />
    <glyph glyph-name="uni17C9.r" 
d="M-517 2251v-600h-201v600h201zM-167 2251v-600h-201v600h201z" />
    <glyph glyph-name="uni17CD.r" 
d="M-276 1849h-309v-90h148v-108h-457v299h436q156 0 156 149h307v-149q0 -101 -281 -101z" />
    <glyph glyph-name="uni17D2_178A.r" 
d="M5 -209v-385h-299v385h-301v-213h100v-172h-399v385q0 127 250 127h399q250 0 250 -127z" />
    <glyph glyph-name="uni17D2_1797.r" 
d="M6 -209v-385h-299v385h-301v-385h-399v172h100v213q0 127 250 127h400q249 0 249 -127z" />
    <glyph glyph-name="uni17D2_1798.r" 
d="M-235 -469l-758 -2v209h750v180h301v-129l-123 -53q36 -1 71 -21q48 -18 74.5 -58t26.5 -85q0 -166 -168 -166t-174 125z" />
    </font>
</defs>
</svg>
